<svg width="77" height="42" viewBox="0 0 77 42" fill="none" xmlns="http://www.w3.org/2000/svg">
<path d="M64.2033 9.65964H63.134V10.0689L63.0986 11.7215C63.0076 11.3813 62.8458 11.0743 62.6132 10.8006C62.3806 10.5269 62.1026 10.2864 61.779 10.0843C61.4554 9.8822 61.0964 9.7236 60.7046 9.6136C60.3102 9.50359 59.9007 9.44731 59.4735 9.44731C58.8136 9.44731 58.2019 9.57778 57.6331 9.83871C57.0643 10.0996 56.5713 10.4603 56.1517 10.9183C55.732 11.3762 55.4059 11.9108 55.1733 12.5248C54.9408 13.1388 54.8245 13.7936 54.8245 14.4869C54.8245 15.1802 54.9433 15.8299 55.1835 16.4388C55.4211 17.0476 55.7472 17.5772 56.1618 18.0274C56.5739 18.4776 57.0668 18.8358 57.6356 19.0967C58.2044 19.3577 58.8187 19.4881 59.476 19.4881C60.29 19.4881 61.0256 19.2988 61.6854 18.9202C62.3452 18.5416 62.8028 17.9993 63.0607 17.2932V18.273C63.0607 18.8742 62.9595 19.4063 62.7598 19.8718C62.5601 20.3349 62.2947 20.7237 61.966 21.0384C61.6374 21.353 61.2557 21.5884 60.8234 21.7444C60.3911 21.9005 59.9487 21.9798 59.4962 21.9798C59.2383 21.9798 58.9704 21.9414 58.6923 21.8621C58.4142 21.7828 58.1513 21.6856 57.9061 21.5679C57.8985 21.5654 57.8935 21.5628 57.8884 21.5602L57.3171 21.2993L56.7255 22.2279C56.7255 22.2279 56.8671 22.3507 56.996 22.43C57.0415 22.4582 57.1123 22.494 57.1123 22.494C57.4612 22.6807 57.8227 22.8342 58.1943 22.9519C58.5937 23.0747 59.0462 23.1386 59.5518 23.1386C60.2495 23.1386 60.8815 23.0286 61.4503 22.8061C62.0191 22.5835 62.507 22.2509 62.914 21.8058C63.321 21.3607 63.6371 20.8056 63.8646 20.1379C64.0896 19.4702 64.2033 18.7002 64.2033 17.8228V10.0562C64.2033 10.0562 64.2033 10.0485 64.2033 10.0459V9.65964ZM62.818 16.0141C62.6309 16.4848 62.3756 16.8967 62.052 17.2497C61.7284 17.6028 61.3467 17.8816 60.9094 18.0837C60.4695 18.2858 59.9917 18.3881 59.476 18.3881C58.9603 18.3881 58.485 18.2832 58.0527 18.0735C57.6204 17.8637 57.2463 17.5823 56.9278 17.2293C56.6118 16.8762 56.3615 16.4644 56.182 15.9937C56 15.523 55.9115 15.019 55.9115 14.4843C55.9115 13.9497 56 13.4432 56.1719 12.9648C56.3463 12.489 56.5915 12.0694 56.9075 11.7087C57.2235 11.348 57.6027 11.0641 58.0401 10.8569C58.48 10.6471 58.9577 10.5422 59.4735 10.5422C59.9892 10.5422 60.472 10.6471 60.9169 10.8569C61.3619 11.0666 61.7461 11.3506 62.0697 11.7087C62.3933 12.0694 62.6436 12.4864 62.8256 12.9648C63.0051 13.4432 63.0961 13.9497 63.0961 14.4843C63.0961 15.019 63.0025 15.5434 62.8155 16.0141H62.818Z" fill="#9C8B61"/>
<path d="M54.7461 10.4501C54.7461 10.4501 54.597 10.2915 54.4175 10.1406C54.3821 10.1124 54.2885 10.0459 54.281 10.0408C54.238 10.0101 54.1318 9.94616 54.1192 9.93848C54.1141 9.93848 54.1091 9.93337 54.1065 9.93081C53.9195 9.82848 53.6995 9.73895 53.4417 9.6622C53.0852 9.55731 52.7667 9.50615 52.4836 9.50615C51.8642 9.50615 51.3308 9.65453 50.8859 9.94872C50.4409 10.2429 50.1275 10.6317 49.9455 11.1152L49.9252 10.0357C49.9252 10.0357 49.9252 10.0357 49.9252 10.0331V9.66476H48.8433V10.0459H48.8483C48.8483 10.0715 48.8407 10.0894 48.8407 10.115V19.2528H49.948V13.6043C49.948 13.2257 50.0087 12.8548 50.1325 12.4967C50.2539 12.1359 50.4258 11.8187 50.6457 11.545C50.8657 11.2713 51.1235 11.0487 51.4218 10.8773C51.7176 10.7085 52.0488 10.6215 52.4103 10.6215C52.6681 10.6215 52.9209 10.6701 53.1661 10.7699C53.3406 10.839 53.4973 10.9157 53.6389 10.995L54.0813 11.3097L54.7512 10.4501H54.7461Z" fill="#9C8B61"/>
<path d="M44.71 9.6622V15.4667C44.71 15.8709 44.6316 16.2469 44.4774 16.5948C44.3232 16.9427 44.1083 17.2446 43.8378 17.5055C43.5673 17.7665 43.2539 17.9737 42.8974 18.1246C42.541 18.2756 42.1719 18.3497 41.7826 18.3497C41.3933 18.3497 41.004 18.2756 40.6501 18.1246C40.2936 17.9737 39.9801 17.7716 39.7096 17.5158C39.4391 17.26 39.2243 16.9607 39.0701 16.6127C38.9159 16.2674 38.8375 15.8913 38.8375 15.4846V9.65964H37.7125V15.4437C37.7125 16.0065 37.8162 16.5309 38.0235 17.0221C38.2308 17.5132 38.5139 17.9404 38.8754 18.3062C39.2369 18.6721 39.6591 18.9611 40.1445 19.1684C40.6298 19.3781 41.143 19.483 41.684 19.483C42.3564 19.483 42.9429 19.3193 43.446 18.9918C43.9491 18.6644 44.3687 18.2525 44.7049 17.7562L44.7833 18.8946C44.7833 18.8946 44.7833 18.8972 44.7833 18.8997V19.2425H45.1372C45.1372 19.2425 45.1448 19.2425 45.1499 19.2425H45.4608C45.4608 19.2425 45.4709 19.2425 45.476 19.2425H45.8299V9.65964H44.7049L44.71 9.6622Z" fill="#9C8B61"/>
<path d="M34.6132 12.819V17.1141C34.1986 17.4544 33.6627 17.7383 33.0054 17.966C32.3456 18.1937 31.6883 18.3088 31.0285 18.3088C30.164 18.3088 29.3499 18.1425 28.5865 17.8074C27.823 17.4748 27.1582 17.0195 26.5894 16.4439C26.0206 15.8683 25.5731 15.1955 25.242 14.423C24.9133 13.6529 24.7465 12.8343 24.7465 11.9722C24.7465 11.1101 24.9108 10.2762 25.242 9.51127C25.5706 8.74638 26.0206 8.07869 26.5894 7.51078C27.1582 6.94287 27.8256 6.49007 28.5941 6.15751C29.3626 5.82495 30.1791 5.65867 31.0462 5.65867C31.7819 5.65867 32.467 5.78913 33.1015 6.05007C33.597 6.25472 34.0672 6.50542 34.507 6.79961L35.0935 7.21403L35.7609 6.35961C35.7609 6.35961 35.632 6.24705 35.4904 6.12937C35.3413 6.00402 35.1795 5.86844 35.1239 5.83518C34.6107 5.47448 34.0621 5.17773 33.4807 4.95261C32.7374 4.6661 31.9209 4.52028 31.0285 4.52028C30.0072 4.52028 29.0491 4.7147 28.1517 5.09843C27.2542 5.48471 26.468 6.01425 25.7981 6.68705C25.1257 7.35985 24.5973 8.14777 24.208 9.0508C23.8212 9.95383 23.6266 10.9259 23.6266 11.9722C23.6266 13.0185 23.8162 13.9753 24.1979 14.8834C24.5796 15.7916 25.1029 16.582 25.7678 17.2548C26.4326 17.9276 27.2188 18.4572 28.1213 18.8435C29.0264 19.2297 30.0022 19.4216 31.0488 19.4216C31.926 19.4216 32.7501 19.2707 33.5186 18.9714C33.8144 18.8563 34.2593 18.6849 34.6334 18.4521C35.2351 18.0786 35.7306 17.6283 35.7306 17.6283L35.7584 12.8139H34.6157L34.6132 12.819Z" fill="#9C8B61"/>
<path d="M12.7941 19.2707L7.66233 6.70496L7.19213 5.57169L6.94186 4.95773C6.93427 4.93982 6.92669 4.92703 6.9191 4.91168L6.8281 4.69168H6.02672L5.92308 4.93982C5.92308 4.93982 5.91802 4.95006 5.91549 4.95517L5.18996 6.70496L0.176959 18.8384C0.169375 18.8588 0.161791 18.8767 0.154207 18.8946L0 19.2681H1.19321L2.6822 15.6202H10.0993L10.7237 17.1602L11.563 19.2681H12.7916L12.7941 19.2707ZM6.39581 6.531L6.92922 7.83823L9.63416 14.5074H3.14229L6.39581 6.53356V6.531Z" fill="#9C8B61"/>
<path d="M14.6345 4.69935C14.6345 4.69935 14.6345 5.04982 14.6345 5.05238V19.2502H15.7393V18.7079C15.7393 18.7079 15.7393 18.7079 15.7393 18.7053L15.7595 5.57681V4.70191H14.6371L14.6345 4.69935Z" fill="#9C8B61"/>
<path d="M77 11.2687L65.8642 0H77V11.2687Z" fill="#9C8B61"/>
<path d="M56.2604 28.521H55.191V28.9303L55.1556 30.5829C55.0646 30.2427 54.9029 29.9357 54.6703 29.662C54.4377 29.3882 54.1596 29.1478 53.836 28.9457C53.5125 28.7436 53.1535 28.585 52.7616 28.475C52.3673 28.365 51.9577 28.3087 51.5305 28.3087C50.8707 28.3087 50.2589 28.4392 49.6901 28.7001C49.1213 28.961 48.6284 29.3217 48.2087 29.7796C47.7891 30.2375 47.463 30.7722 47.2304 31.3862C46.9978 32.0001 46.8815 32.655 46.8815 33.3483C46.8815 34.0415 47.0004 34.6913 47.2405 35.3002C47.4781 35.909 47.8043 36.4385 48.2188 36.8888C48.6309 37.339 49.1239 37.6972 49.6927 37.9581C50.2615 38.219 50.8758 38.3495 51.533 38.3495C52.3471 38.3495 53.0827 38.1602 53.7425 37.7816C54.4023 37.403 54.8599 36.8606 55.1177 36.1546V37.1344C55.1177 37.7355 55.0166 38.2676 54.8169 38.7332C54.6172 39.1963 54.3517 39.5851 54.0231 39.8997C53.6945 40.2144 53.3127 40.4497 52.8805 40.6058C52.4482 40.7618 52.0058 40.8411 51.5533 40.8411C51.2954 40.8411 51.0274 40.8028 50.7494 40.7235C50.4713 40.6442 50.2084 40.547 49.9632 40.4293C49.9556 40.4267 49.9505 40.4242 49.9455 40.4216L49.3741 40.1607L48.7826 41.0893C48.7826 41.0893 48.9242 41.2121 49.0531 41.2914C49.0986 41.3195 49.1694 41.3553 49.1694 41.3553C49.5182 41.5421 49.8797 41.6956 50.2514 41.8133C50.6508 41.936 51.1033 42 51.6089 42C52.3066 42 52.9386 41.89 53.5074 41.6674C54.0762 41.4449 54.5641 41.1123 54.9711 40.6672C55.3781 40.2221 55.6941 39.667 55.9216 38.9993C56.1466 38.3316 56.2604 37.5616 56.2604 36.6841V28.9175C56.2604 28.9175 56.2604 28.9099 56.2604 28.9073V28.521ZM54.8776 34.8781C54.6905 35.3488 54.4352 35.7606 54.1116 36.1137C53.788 36.4667 53.4063 36.7455 52.9689 36.9476C52.5291 37.1497 52.0513 37.252 51.5356 37.252C51.0199 37.252 50.5446 37.1472 50.1123 36.9374C49.68 36.7276 49.3059 36.4462 48.9874 36.0932C48.6714 35.7402 48.4211 35.3283 48.2416 34.8576C48.0596 34.3869 47.9711 33.8829 47.9711 33.3483C47.9711 32.8136 48.0596 32.3071 48.2315 31.8287C48.4059 31.3529 48.6511 30.9334 48.9671 30.5727C49.2831 30.212 49.6623 29.928 50.0997 29.7208C50.5395 29.511 51.0173 29.4061 51.533 29.4061C52.0488 29.4061 52.5316 29.511 52.9765 29.7208C53.4214 29.9306 53.8057 30.2145 54.1293 30.5727C54.4529 30.9334 54.7031 31.3503 54.8852 31.8287C55.0646 32.3071 55.1556 32.8136 55.1556 33.3483C55.1556 33.8829 55.0621 34.4074 54.875 34.8781H54.8776Z" fill="#9C8B61"/>
<path d="M10.4305 36.6713V23.5531H9.35103V37.7637H18.2824V36.6713H10.4305Z" fill="#9C8B61"/>
<path d="M21.0961 25.0547C20.9216 24.8782 20.7042 24.7886 20.4464 24.7886C20.1885 24.7886 19.9913 24.8756 19.8169 25.0547C19.6425 25.2312 19.554 25.4512 19.554 25.7121C19.554 25.9731 19.6425 26.1726 19.8169 26.3491C19.9913 26.5256 20.2012 26.6152 20.4464 26.6152C20.7042 26.6152 20.9216 26.5256 21.0961 26.3491C21.2705 26.1726 21.359 25.9603 21.359 25.7121C21.359 25.4512 21.273 25.2312 21.0961 25.0547Z" fill="#9C8B61"/>
<path d="M19.9029 28.5185V38.1167H21.0278V28.5185H19.9029Z" fill="#9C8B61"/>
<path d="M34.2441 25.0547C34.0697 24.8782 33.8523 24.7886 33.5944 24.7886C33.3366 24.7886 33.1394 24.8756 32.965 25.0547C32.7905 25.2312 32.7021 25.4512 32.7021 25.7121C32.7021 25.9731 32.7905 26.1726 32.965 26.3491C33.1394 26.5256 33.3492 26.6152 33.5944 26.6152C33.8523 26.6152 34.0697 26.5256 34.2441 26.3491C34.4186 26.1726 34.507 25.9603 34.507 25.7121C34.507 25.4512 34.4211 25.2312 34.2441 25.0547Z" fill="#9C8B61"/>
<path d="M33.0509 28.5185V38.1167H34.1759V28.5185H33.0509Z" fill="#9C8B61"/>
<path d="M31.1752 28.3982H29.9895L29.848 28.7538V28.7564L26.875 35.9832L23.8996 28.7538L23.758 28.3982H22.5724L23.2524 30.0329L26.19 37.1241L26.195 37.1395L26.3442 37.4951V37.4976L26.4554 37.7637H27.2947L27.5576 37.1241L30.9375 28.9687L31.1752 28.3982Z" fill="#9C8B61"/>
<path d="M44.8136 30.8362C44.6139 30.3143 44.3384 29.8641 43.9895 29.4931C43.6407 29.1196 43.2261 28.8306 42.7483 28.6208C42.2705 28.411 41.7523 28.3061 41.1961 28.3061C40.5363 28.3061 39.9397 28.4699 39.4012 28.7973C38.8653 29.1247 38.4355 29.5315 38.1119 30.015L38.0715 28.5236H36.987V38.1218H38.0917V32.2406C38.0917 31.8466 38.1752 31.4757 38.3445 31.1303C38.5114 30.7824 38.7313 30.4806 39.0043 30.2248C39.2748 29.9689 39.5934 29.7694 39.9549 29.6261C40.3164 29.4829 40.693 29.4087 41.0798 29.4087C41.4666 29.4087 41.8559 29.4829 42.2048 29.6338C42.5536 29.7847 42.862 29.992 43.125 30.2529C43.3904 30.5164 43.6002 30.8234 43.7544 31.1764C43.9086 31.5294 43.987 31.9106 43.987 32.3173V38.1193H45.112V32.545C45.112 31.9311 45.0108 31.3606 44.8111 30.8387L44.8136 30.8362Z" fill="#9C8B61"/>
</svg>
