<svg width="153" height="83" viewBox="0 0 153 83" fill="none" xmlns="http://www.w3.org/2000/svg">
<path d="M127.573 19.0893H125.448V19.8982L125.378 23.164C125.197 22.4916 124.875 21.8849 124.413 21.344C123.951 20.8031 123.399 20.3279 122.756 19.9285C122.113 19.5291 121.399 19.2157 120.621 18.9983C119.837 18.7809 119.023 18.6697 118.175 18.6697C116.863 18.6697 115.648 18.9275 114.518 19.4432C113.387 19.9588 112.408 20.6716 111.574 21.5766C110.74 22.4815 110.092 23.5381 109.63 24.7514C109.168 25.9647 108.937 27.2589 108.937 28.6289C108.937 29.9989 109.173 31.283 109.65 32.4862C110.122 33.6894 110.77 34.7358 111.594 35.6256C112.413 36.5154 113.392 37.2231 114.523 37.7388C115.653 38.2544 116.874 38.5122 118.18 38.5122C119.797 38.5122 121.259 38.1381 122.57 37.3899C123.881 36.6417 124.79 35.57 125.302 34.1747V36.1109C125.302 37.2989 125.101 38.3505 124.705 39.2706C124.308 40.1856 123.78 40.954 123.127 41.5758C122.474 42.1977 121.716 42.6628 120.857 42.9711C119.998 43.2795 119.119 43.4362 118.22 43.4362C117.707 43.4362 117.175 43.3604 116.622 43.2037C116.07 43.047 115.547 42.8549 115.06 42.6223C115.045 42.6173 115.035 42.6122 115.025 42.6071L113.89 42.0915L112.714 43.9266C112.714 43.9266 112.996 44.1693 113.252 44.326C113.342 44.3816 113.483 44.4524 113.483 44.4524C114.176 44.8214 114.894 45.1247 115.633 45.3573C116.426 45.6 117.326 45.7263 118.33 45.7263C119.717 45.7263 120.972 45.509 122.103 45.0691C123.233 44.6293 124.202 43.9721 125.011 43.0925C125.82 42.2128 126.448 41.1158 126.9 39.7963C127.347 38.4769 127.573 36.9552 127.573 35.2212V19.8729C127.573 19.8729 127.573 19.8577 127.573 19.8527V19.0893ZM124.82 31.647C124.448 32.5772 123.941 33.3911 123.298 34.0887C122.655 34.7864 121.897 35.3374 121.028 35.7368C120.154 36.1362 119.204 36.3384 118.18 36.3384C117.155 36.3384 116.21 36.1311 115.352 35.7166C114.493 35.3021 113.749 34.746 113.116 34.0483C112.488 33.3507 111.991 32.5367 111.634 31.6065C111.273 30.6763 111.097 29.6804 111.097 28.6238C111.097 27.5672 111.273 26.5663 111.614 25.6209C111.961 24.6806 112.448 23.8515 113.076 23.1387C113.704 22.4259 114.457 21.8647 115.326 21.4552C116.2 21.0407 117.15 20.8334 118.175 20.8334C119.199 20.8334 120.159 21.0407 121.043 21.4552C121.927 21.8698 122.69 22.4309 123.333 23.1387C123.976 23.8515 124.474 24.6755 124.835 25.6209C125.192 26.5663 125.373 27.5672 125.373 28.6238C125.373 29.6804 125.187 30.7168 124.815 31.647H124.82Z" fill="white"/>
<path d="M108.781 20.6514C108.781 20.6514 108.485 20.338 108.128 20.0397C108.058 19.9841 107.872 19.8527 107.857 19.8426C107.772 19.7819 107.561 19.6555 107.536 19.6403C107.525 19.6403 107.515 19.6302 107.51 19.6252C107.139 19.423 106.702 19.246 106.189 19.0943C105.481 18.8871 104.848 18.786 104.286 18.786C103.055 18.786 101.995 19.0792 101.111 19.6606C100.227 20.2419 99.604 21.0104 99.2423 21.9658L99.2021 19.8324C99.2021 19.8324 99.2021 19.8324 99.2021 19.8274V19.0994H97.0522V19.8527H97.0622C97.0622 19.9032 97.0472 19.9386 97.0472 19.9892V38.0471H99.2473V26.8848C99.2473 26.1366 99.3679 25.4035 99.614 24.6958C99.8551 23.9829 100.197 23.3561 100.634 22.8151C101.071 22.2742 101.583 21.8344 102.176 21.4957C102.764 21.162 103.422 20.9901 104.14 20.9901C104.652 20.9901 105.155 21.0862 105.642 21.2833C105.988 21.4198 106.3 21.5715 106.581 21.7282L107.46 22.35L108.791 20.6514H108.781Z" fill="white"/>
<path d="M88.8394 19.0943V30.5651C88.8394 31.3639 88.6836 32.107 88.3772 32.7946C88.0708 33.4821 87.6438 34.0786 87.1064 34.5943C86.5689 35.1099 85.946 35.5194 85.2378 35.8177C84.5295 36.116 83.7961 36.2626 83.0225 36.2626C82.249 36.2626 81.4754 36.116 80.7722 35.8177C80.0639 35.5194 79.441 35.1201 78.9036 34.6145C78.3661 34.109 77.9391 33.5175 77.6327 32.8299C77.3263 32.1475 77.1706 31.4043 77.1706 30.6005V19.0893H74.9353V30.5196C74.9353 31.6318 75.1412 32.6682 75.5531 33.6388C75.965 34.6095 76.5276 35.4537 77.2459 36.1766C77.9642 36.8996 78.8031 37.4708 79.7676 37.8803C80.732 38.2949 81.7517 38.5021 82.8267 38.5021C84.1628 38.5021 85.3282 38.1786 86.3278 37.5315C87.3274 36.8844 88.1612 36.0705 88.8293 35.0897L88.985 37.3394C88.985 37.3394 88.985 37.3444 88.985 37.3495V38.0269H89.6883C89.6883 38.0269 89.7033 38.0269 89.7134 38.0269H90.3312C90.3312 38.0269 90.3513 38.0269 90.3614 38.0269H91.0646V19.0893H88.8293L88.8394 19.0943Z" fill="white"/>
<path d="M68.7769 25.3327V33.8208C67.9531 34.4932 66.8882 35.0543 65.5822 35.5043C64.2711 35.9542 62.9651 36.1817 61.6541 36.1817C59.9362 36.1817 58.3187 35.8531 56.8017 35.1908C55.2847 34.5336 53.9637 33.6338 52.8334 32.4963C51.7032 31.3588 50.8141 30.0292 50.1561 28.5025C49.5031 26.9808 49.1716 25.3631 49.1716 23.6594C49.1716 21.9557 49.4981 20.3077 50.1561 18.7961C50.8091 17.2845 51.7032 15.965 52.8334 14.8427C53.9637 13.7204 55.2898 12.8256 56.8168 12.1684C58.3438 11.5112 59.9663 11.1826 61.6893 11.1826C63.151 11.1826 64.5123 11.4404 65.7731 11.9561C66.7576 12.3605 67.6919 12.856 68.5659 13.4373L69.7313 14.2563L71.0574 12.5678C71.0574 12.5678 70.8012 12.3454 70.5199 12.1128C70.2236 11.8651 69.9021 11.5971 69.7916 11.5314C68.7719 10.8186 67.6819 10.2322 66.5265 9.78731C65.0497 9.2211 63.4273 8.93294 61.6541 8.93294C59.6247 8.93294 57.721 9.31715 55.9378 10.0755C54.1545 10.8388 52.5923 11.8853 51.2612 13.2149C49.925 14.5445 48.8752 16.1015 48.1016 17.8861C47.3331 19.6707 46.9463 21.5917 46.9463 23.6594C46.9463 25.7271 47.3231 27.6178 48.0816 29.4125C48.84 31.2072 49.8798 32.7693 51.2009 34.0989C52.522 35.4284 54.0842 36.4749 55.8775 37.2383C57.6758 38.0017 59.6147 38.3808 61.6943 38.3808C63.4373 38.3808 65.0749 38.0825 66.6019 37.4911C67.1896 37.2636 68.0737 36.9248 68.8171 36.4648C70.0126 35.7267 70.9971 34.837 70.9971 34.837L71.0524 25.3226H68.7819L68.7769 25.3327Z" fill="white"/>
<path d="M25.4221 38.0825L15.2252 13.2503L14.2908 11.0107L13.7936 9.79742C13.7785 9.76203 13.7634 9.73675 13.7484 9.70642L13.5675 9.27165H11.9752L11.7692 9.76203C11.7692 9.76203 11.7592 9.78225 11.7542 9.79236L10.3125 13.2503L0.35162 37.2282C0.336551 37.2686 0.321481 37.304 0.306412 37.3394L0 38.0775H2.37092L5.32956 30.8684H20.0675L21.3082 33.9118L22.9759 38.0775H25.4171L25.4221 38.0825ZM12.7086 12.9065L13.7684 15.4898L19.1432 28.6693H6.24377L12.7086 12.9116V12.9065Z" fill="white"/>
<path d="M29.079 9.28682C29.079 9.28682 29.079 9.97941 29.079 9.98447V38.0421H31.2741V36.9703C31.2741 36.9703 31.2741 36.9703 31.2741 36.9653L31.3143 11.0208V9.29187H29.084L29.079 9.28682Z" fill="white"/>
<path d="M153 22.2692L130.873 0H153V22.2692Z" fill="white"/>
<path d="M111.79 56.363H109.665V57.1718L109.595 60.4376C109.414 59.7653 109.093 59.1586 108.631 58.6177C108.168 58.0768 107.616 57.6015 106.973 57.2022C106.33 56.8028 105.617 56.4893 104.838 56.272C104.054 56.0546 103.241 55.9434 102.392 55.9434C101.081 55.9434 99.8652 56.2012 98.735 56.7168C97.6047 57.2325 96.6252 57.9453 95.7914 58.8502C94.9576 59.7552 94.3096 60.8117 93.8474 62.025C93.3853 63.2383 93.1542 64.5325 93.1542 65.9026C93.1542 67.2726 93.3903 68.5567 93.8675 69.7598C94.3397 70.963 94.9877 72.0095 95.8115 72.8993C96.6303 73.789 97.6098 74.4968 98.74 75.0124C99.8702 75.5281 101.091 75.7859 102.397 75.7859C104.014 75.7859 105.476 75.4118 106.787 74.6636C108.098 73.9154 109.007 72.8437 109.52 71.4484V73.3846C109.52 74.5726 109.319 75.6241 108.922 76.5442C108.525 77.4593 107.998 78.2277 107.345 78.8495C106.692 79.4713 105.933 79.9364 105.074 80.2448C104.215 80.5532 103.336 80.7099 102.437 80.7099C101.925 80.7099 101.392 80.6341 100.84 80.4773C100.287 80.3206 99.7647 80.1285 99.2775 79.896C99.2624 79.8909 99.2523 79.8859 99.2423 79.8808L98.1071 79.3652L96.9316 81.2003C96.9316 81.2003 97.2129 81.4429 97.4691 81.5997C97.5595 81.6553 97.7002 81.726 97.7002 81.726C98.3934 82.0951 99.1117 82.3984 99.8501 82.631C100.644 82.8736 101.543 83 102.548 83C103.934 83 105.19 82.7826 106.32 82.3428C107.45 81.903 108.42 81.2458 109.228 80.3661C110.037 79.4865 110.665 78.3895 111.117 77.07C111.564 75.7505 111.79 74.2288 111.79 72.4948V57.1466C111.79 57.1466 111.79 57.1314 111.79 57.1263V56.363ZM109.042 68.9257C108.671 69.8559 108.163 70.6698 107.52 71.3675C106.877 72.0651 106.119 72.6162 105.25 73.0155C104.376 73.4149 103.427 73.6171 102.402 73.6171C101.377 73.6171 100.433 73.4099 99.5738 72.9953C98.7149 72.5808 97.9714 72.0247 97.3385 71.327C96.7106 70.6294 96.2133 69.8155 95.8567 68.8853C95.495 67.9551 95.3192 66.9591 95.3192 65.9026C95.3192 64.846 95.495 63.845 95.8366 62.8996C96.1832 61.9593 96.6704 61.1302 97.2983 60.4174C97.9262 59.7046 98.6797 59.1434 99.5487 58.734C100.423 58.3194 101.372 58.1121 102.397 58.1121C103.422 58.1121 104.381 58.3194 105.265 58.734C106.149 59.1485 106.913 59.7097 107.556 60.4174C108.199 61.1302 108.696 61.9543 109.058 62.8996C109.414 63.845 109.595 64.846 109.595 65.9026C109.595 66.9591 109.409 67.9955 109.037 68.9257H109.042Z" fill="white"/>
<path d="M20.7255 72.4696V46.5453H18.5806V74.6282H36.3274V72.4696H20.7255Z" fill="white"/>
<path d="M41.9182 49.5129C41.5716 49.164 41.1396 48.9871 40.6272 48.9871C40.1148 48.9871 39.723 49.159 39.3764 49.5129C39.0298 49.8617 38.854 50.2964 38.854 50.8121C38.854 51.3278 39.0298 51.7221 39.3764 52.0709C39.723 52.4197 40.14 52.5967 40.6272 52.5967C41.1396 52.5967 41.5716 52.4197 41.9182 52.0709C42.2647 51.7221 42.4406 51.3025 42.4406 50.8121C42.4406 50.2964 42.2698 49.8617 41.9182 49.5129Z" fill="white"/>
<path d="M39.5472 56.3579V75.3259H41.7825V56.3579H39.5472Z" fill="white"/>
<path d="M68.0435 49.5129C67.6969 49.164 67.2649 48.9871 66.7526 48.9871C66.2402 48.9871 65.8484 49.159 65.5018 49.5129C65.1552 49.8617 64.9794 50.2964 64.9794 50.8121C64.9794 51.3278 65.1552 51.7221 65.5018 52.0709C65.8484 52.4197 66.2653 52.5967 66.7526 52.5967C67.2649 52.5967 67.6969 52.4197 68.0435 52.0709C68.3901 51.7221 68.5659 51.3025 68.5659 50.8121C68.5659 50.2964 68.3952 49.8617 68.0435 49.5129Z" fill="white"/>
<path d="M65.6726 56.3579V75.3259H67.9079V56.3579H65.6726Z" fill="white"/>
<path d="M61.9454 56.1203H59.5896L59.3083 56.823V56.8281L53.4011 71.1096L47.4888 56.823L47.2075 56.1203H44.8517L46.2029 59.3507L52.0398 73.3644L52.0498 73.3947L52.3462 74.0974V74.1025L52.5672 74.6282H54.2349L54.7573 73.3644L61.4733 57.2477L61.9454 56.1203Z" fill="white"/>
<path d="M89.0453 60.9381C88.6485 59.9068 88.101 59.0171 87.4078 58.284C86.7146 57.5459 85.8908 56.9747 84.9414 56.5601C83.992 56.1456 82.9623 55.9383 81.8572 55.9383C80.5461 55.9383 79.3607 56.2619 78.2907 56.9089C77.2258 57.556 76.3719 58.3599 75.7289 59.3153L75.6486 56.368H73.4936V75.336H75.6888V63.7136C75.6888 62.935 75.8545 62.202 76.1911 61.5195C76.5226 60.832 76.9596 60.2354 77.5021 59.7299C78.0396 59.2243 78.6725 58.83 79.3908 58.5469C80.1091 58.2638 80.8576 58.1172 81.6261 58.1172C82.3947 58.1172 83.1682 58.2638 83.8614 58.5621C84.5546 58.8603 85.1674 59.2698 85.6898 59.7855C86.2173 60.3062 86.6342 60.9128 86.9406 61.6105C87.247 62.3081 87.4027 63.0614 87.4027 63.8652V75.3309H89.638V64.3151C89.638 63.1018 89.4371 61.9745 89.0403 60.9432L89.0453 60.9381Z" fill="white"/>
</svg>
