<svg width="165" height="83" viewBox="0 0 165 83" fill="none" xmlns="http://www.w3.org/2000/svg">
<path d="M127.573 19.0893H125.448V19.8982L125.378 23.164C125.197 22.4916 124.875 21.8849 124.413 21.344C123.951 20.8031 123.399 20.3279 122.756 19.9285C122.113 19.5291 121.399 19.2157 120.621 18.9983C119.837 18.7809 119.023 18.6697 118.175 18.6697C116.863 18.6697 115.648 18.9275 114.518 19.4432C113.387 19.9588 112.408 20.6716 111.574 21.5766C110.74 22.4815 110.092 23.5381 109.63 24.7514C109.168 25.9647 108.937 27.2589 108.937 28.6289C108.937 29.9989 109.173 31.283 109.65 32.4862C110.122 33.6894 110.77 34.7358 111.594 35.6256C112.413 36.5154 113.392 37.2231 114.523 37.7388C115.653 38.2544 116.874 38.5122 118.18 38.5122C119.797 38.5122 121.259 38.1381 122.57 37.3899C123.881 36.6417 124.79 35.57 125.302 34.1747V36.1109C125.302 37.2989 125.101 38.3505 124.705 39.2706C124.308 40.1856 123.78 40.954 123.127 41.5758C122.474 42.1977 121.716 42.6628 120.857 42.9711C119.998 43.2795 119.119 43.4362 118.22 43.4362C117.707 43.4362 117.175 43.3604 116.622 43.2037C116.07 43.047 115.547 42.8549 115.06 42.6223C115.045 42.6173 115.035 42.6122 115.025 42.6071L113.89 42.0915L112.714 43.9266C112.714 43.9266 112.996 44.1693 113.252 44.326C113.342 44.3816 113.483 44.4524 113.483 44.4524C114.176 44.8214 114.894 45.1247 115.633 45.3573C116.426 45.6 117.326 45.7263 118.33 45.7263C119.717 45.7263 120.972 45.509 122.103 45.0691C123.233 44.6293 124.202 43.9721 125.011 43.0925C125.82 42.2128 126.448 41.1158 126.9 39.7963C127.347 38.4769 127.573 36.9552 127.573 35.2212V19.8729C127.573 19.8729 127.573 19.8577 127.573 19.8527V19.0893ZM124.82 31.647C124.448 32.5772 123.941 33.3911 123.298 34.0887C122.655 34.7864 121.897 35.3374 121.028 35.7368C120.154 36.1362 119.204 36.3384 118.18 36.3384C117.155 36.3384 116.21 36.1311 115.352 35.7166C114.493 35.302 113.749 34.7459 113.116 34.0483C112.488 33.3507 111.991 32.5367 111.634 31.6065C111.273 30.6763 111.097 29.6804 111.097 28.6238C111.097 27.5672 111.273 26.5663 111.614 25.6209C111.961 24.6806 112.448 23.8515 113.076 23.1387C113.704 22.4259 114.457 21.8647 115.326 21.4552C116.2 21.0407 117.15 20.8334 118.175 20.8334C119.199 20.8334 120.159 21.0407 121.043 21.4552C121.927 21.8698 122.69 22.4309 123.333 23.1387C123.976 23.8515 124.474 24.6755 124.835 25.6209C125.192 26.5663 125.373 27.5672 125.373 28.6238C125.373 29.6804 125.187 30.7168 124.815 31.647H124.82Z" fill="#8D7F59"/>
<path d="M108.781 20.6514C108.781 20.6514 108.485 20.338 108.128 20.0397C108.058 19.9841 107.872 19.8527 107.857 19.8426C107.772 19.7819 107.561 19.6555 107.536 19.6403C107.525 19.6403 107.515 19.6302 107.51 19.6252C107.139 19.423 106.702 19.246 106.189 19.0943C105.481 18.8871 104.848 18.786 104.286 18.786C103.055 18.786 101.995 19.0792 101.111 19.6606C100.227 20.2419 99.604 21.0104 99.2423 21.9658L99.2021 19.8324C99.2021 19.8324 99.2021 19.8324 99.2021 19.8274V19.0994H97.0522V19.8527H97.0622C97.0622 19.9032 97.0472 19.9386 97.0472 19.9892V38.0471H99.2473V26.8848C99.2473 26.1366 99.3679 25.4035 99.614 24.6958C99.8551 23.983 100.197 23.3561 100.634 22.8151C101.071 22.2742 101.583 21.8344 102.176 21.4957C102.764 21.162 103.422 20.9901 104.14 20.9901C104.652 20.9901 105.155 21.0862 105.642 21.2833C105.988 21.4198 106.3 21.5715 106.581 21.7282L107.46 22.35L108.791 20.6514H108.781Z" fill="#8D7F59"/>
<path d="M88.8394 19.0943V30.5651C88.8394 31.3639 88.6836 32.107 88.3772 32.7946C88.0708 33.4821 87.6438 34.0786 87.1064 34.5943C86.5689 35.1099 85.946 35.5194 85.2378 35.8177C84.5295 36.116 83.7961 36.2626 83.0225 36.2626C82.249 36.2626 81.4754 36.116 80.7722 35.8177C80.0639 35.5194 79.441 35.1201 78.9036 34.6145C78.3661 34.109 77.9391 33.5175 77.6327 32.8299C77.3263 32.1475 77.1706 31.4043 77.1706 30.6005V19.0893H74.9353V30.5196C74.9353 31.6318 75.1412 32.6682 75.5531 33.6388C75.965 34.6095 76.5276 35.4537 77.2459 36.1766C77.9642 36.8996 78.8031 37.4708 79.7676 37.8803C80.732 38.2949 81.7517 38.5021 82.8267 38.5021C84.1628 38.5021 85.3282 38.1786 86.3278 37.5315C87.3274 36.8844 88.1612 36.0705 88.8293 35.0897L88.985 37.3394C88.985 37.3394 88.985 37.3444 88.985 37.3495V38.0269H89.6883C89.6883 38.0269 89.7033 38.0269 89.7134 38.0269H90.3312C90.3312 38.0269 90.3513 38.0269 90.3614 38.0269H91.0646V19.0893H88.8293L88.8394 19.0943Z" fill="#8D7F59"/>
<path d="M68.7769 25.3327V33.8208C67.9531 34.4932 66.8882 35.0543 65.5822 35.5043C64.2711 35.9542 62.9651 36.1817 61.6541 36.1817C59.9362 36.1817 58.3187 35.8531 56.8017 35.1908C55.2847 34.5336 53.9637 33.6338 52.8334 32.4963C51.7032 31.3588 50.8141 30.0292 50.1561 28.5025C49.5031 26.9808 49.1716 25.3631 49.1716 23.6594C49.1716 21.9557 49.4981 20.3077 50.1561 18.7961C50.8091 17.2845 51.7032 15.965 52.8334 14.8427C53.9637 13.7204 55.2898 12.8256 56.8168 12.1684C58.3438 11.5112 59.9663 11.1826 61.6893 11.1826C63.151 11.1826 64.5123 11.4404 65.7731 11.9561C66.7576 12.3605 67.6919 12.856 68.5659 13.4373L69.7313 14.2563L71.0574 12.5678C71.0574 12.5678 70.8012 12.3454 70.5199 12.1128C70.2236 11.8651 69.9021 11.5971 69.7916 11.5314C68.7719 10.8186 67.6819 10.2322 66.5265 9.78731C65.0497 9.2211 63.4273 8.93294 61.6541 8.93294C59.6247 8.93294 57.721 9.31715 55.9378 10.0755C54.1545 10.8388 52.5923 11.8853 51.2612 13.2149C49.925 14.5445 48.8752 16.1015 48.1016 17.8861C47.3331 19.6707 46.9463 21.5917 46.9463 23.6594C46.9463 25.7271 47.3231 27.6178 48.0816 29.4125C48.84 31.2072 49.8798 32.7693 51.2009 34.0989C52.522 35.4284 54.0842 36.4749 55.8775 37.2383C57.6758 38.0017 59.6147 38.3808 61.6943 38.3808C63.4373 38.3808 65.0748 38.0825 66.6019 37.4911C67.1896 37.2636 68.0737 36.9248 68.8171 36.4648C70.0126 35.7267 70.9971 34.837 70.9971 34.837L71.0524 25.3226H68.7819L68.7769 25.3327Z" fill="#8D7F59"/>
<path d="M25.4221 38.0825L15.2252 13.2503L14.2908 11.0107L13.7936 9.79742C13.7785 9.76203 13.7634 9.73675 13.7484 9.70642L13.5675 9.27165H11.9752L11.7692 9.76203C11.7692 9.76203 11.7592 9.78225 11.7542 9.79236L10.3125 13.2503L0.35162 37.2282C0.336551 37.2686 0.321481 37.304 0.306412 37.3394L0 38.0775H2.37092L5.32956 30.8684H20.0675L21.3082 33.9118L22.9759 38.0775H25.4171L25.4221 38.0825ZM12.7086 12.9065L13.7684 15.4898L19.1432 28.6693H6.24377L12.7086 12.9116V12.9065Z" fill="#8D7F59"/>
<path d="M29.079 9.28682C29.079 9.28682 29.079 9.97941 29.079 9.98447V38.0421H31.2741V36.9703C31.2741 36.9703 31.2741 36.9703 31.2741 36.9653L31.3143 11.0208V9.29187H29.084L29.079 9.28682Z" fill="#8D7F59"/>
<path d="M153 22.2692L141.937 11.1346L130.873 0H153V22.2692Z" fill="#8D7F59"/>
<path d="M111.79 56.363H109.665V57.1718L109.595 60.4376C109.414 59.7653 109.093 59.1586 108.631 58.6177C108.168 58.0768 107.616 57.6015 106.973 57.2022C106.33 56.8028 105.617 56.4893 104.838 56.272C104.054 56.0546 103.241 55.9434 102.392 55.9434C101.081 55.9434 99.8652 56.2012 98.735 56.7168C97.6047 57.2325 96.6252 57.9453 95.7914 58.8502C94.9576 59.7552 94.3096 60.8117 93.8474 62.025C93.3853 63.2383 93.1542 64.5325 93.1542 65.9026C93.1542 67.2726 93.3903 68.5567 93.8675 69.7598C94.3397 70.963 94.9877 72.0095 95.8115 72.8993C96.6302 73.789 97.6098 74.4968 98.74 75.0124C99.8702 75.5281 101.091 75.7859 102.397 75.7859C104.014 75.7859 105.476 75.4118 106.787 74.6636C108.098 73.9154 109.007 72.8437 109.52 71.4484V73.3846C109.52 74.5726 109.319 75.6241 108.922 76.5442C108.525 77.4593 107.998 78.2277 107.345 78.8495C106.692 79.4713 105.933 79.9364 105.074 80.2448C104.215 80.5532 103.336 80.7099 102.437 80.7099C101.925 80.7099 101.392 80.6341 100.84 80.4773C100.287 80.3206 99.7647 80.1285 99.2775 79.896C99.2624 79.8909 99.2523 79.8859 99.2423 79.8808L98.1071 79.3652L96.9316 81.2003C96.9316 81.2003 97.2129 81.4429 97.4691 81.5997C97.5595 81.6553 97.7002 81.726 97.7002 81.726C98.3934 82.0951 99.1117 82.3984 99.8501 82.631C100.644 82.8736 101.543 83 102.548 83C103.934 83 105.19 82.7826 106.32 82.3428C107.45 81.903 108.42 81.2458 109.228 80.3661C110.037 79.4865 110.665 78.3895 111.117 77.07C111.564 75.7505 111.79 74.2288 111.79 72.4948V57.1466C111.79 57.1466 111.79 57.1314 111.79 57.1263V56.363ZM109.042 68.9257C108.671 69.8559 108.163 70.6698 107.52 71.3675C106.877 72.0651 106.119 72.6162 105.25 73.0155C104.376 73.4149 103.427 73.6171 102.402 73.6171C101.377 73.6171 100.433 73.4099 99.5738 72.9953C98.7149 72.5808 97.9714 72.0247 97.3385 71.327C96.7106 70.6294 96.2133 69.8155 95.8567 68.8853C95.495 67.9551 95.3192 66.9591 95.3192 65.9026C95.3192 64.846 95.495 63.845 95.8366 62.8996C96.1832 61.9593 96.6704 61.1302 97.2983 60.4174C97.9262 59.7046 98.6797 59.1434 99.5487 58.734C100.423 58.3194 101.372 58.1121 102.397 58.1121C103.422 58.1121 104.381 58.3194 105.265 58.734C106.149 59.1485 106.913 59.7097 107.556 60.4174C108.199 61.1302 108.696 61.9543 109.058 62.8996C109.414 63.845 109.595 64.846 109.595 65.9026C109.595 66.9591 109.409 67.9955 109.037 68.9257H109.042Z" fill="#8D7F59"/>
<path d="M20.7255 72.4696V46.5453H18.5806V74.6282H36.3274V72.4696H20.7255Z" fill="#8D7F59"/>
<path d="M41.9182 49.5129C41.5716 49.164 41.1396 48.9871 40.6272 48.9871C40.1148 48.9871 39.723 49.159 39.3764 49.5129C39.0298 49.8617 38.854 50.2964 38.854 50.8121C38.854 51.3278 39.0298 51.7221 39.3764 52.0709C39.723 52.4197 40.14 52.5967 40.6272 52.5967C41.1396 52.5967 41.5716 52.4197 41.9182 52.0709C42.2647 51.7221 42.4406 51.3025 42.4406 50.8121C42.4406 50.2964 42.2698 49.8617 41.9182 49.5129Z" fill="#8D7F59"/>
<path d="M39.5472 56.3579V75.3259H41.7825V56.3579H39.5472Z" fill="#8D7F59"/>
<path d="M68.0435 49.5129C67.6969 49.164 67.2649 48.9871 66.7526 48.9871C66.2402 48.9871 65.8484 49.159 65.5018 49.5129C65.1552 49.8617 64.9794 50.2964 64.9794 50.8121C64.9794 51.3278 65.1552 51.7221 65.5018 52.0709C65.8484 52.4197 66.2653 52.5967 66.7526 52.5967C67.2649 52.5967 67.6969 52.4197 68.0435 52.0709C68.3901 51.7221 68.5659 51.3025 68.5659 50.8121C68.5659 50.2964 68.3952 49.8617 68.0435 49.5129Z" fill="#8D7F59"/>
<path d="M65.6726 56.3579V75.3259H67.9079V56.3579H65.6726Z" fill="#8D7F59"/>
<path d="M61.9454 56.1203H59.5896L59.3083 56.823V56.8281L53.4011 71.1096L47.4888 56.823L47.2075 56.1203H44.8517L46.2029 59.3507L52.0398 73.3644L52.0498 73.3947L52.3462 74.0974V74.1025L52.5672 74.6282H54.2349L54.7573 73.3644L61.4733 57.2477L61.9454 56.1203Z" fill="#8D7F59"/>
<path d="M89.0453 60.9381C88.6485 59.9068 88.1009 59.0171 87.4078 58.284C86.7146 57.5459 85.8908 56.9747 84.9414 56.5601C83.992 56.1456 82.9623 55.9383 81.8572 55.9383C80.5461 55.9383 79.3607 56.2619 78.2907 56.9089C77.2258 57.556 76.3719 58.3599 75.7289 59.3153L75.6486 56.368H73.4936V75.336H75.6888V63.7136C75.6888 62.935 75.8545 62.202 76.1911 61.5195C76.5226 60.832 76.9596 60.2354 77.5021 59.7299C78.0396 59.2243 78.6725 58.83 79.3908 58.5469C80.1091 58.2638 80.8576 58.1172 81.6261 58.1172C82.3947 58.1172 83.1682 58.2638 83.8614 58.5621C84.5546 58.8603 85.1674 59.2698 85.6898 59.7855C86.2173 60.3062 86.6342 60.9128 86.9406 61.6105C87.247 62.3081 87.4027 63.0614 87.4027 63.8652V75.3309H89.638V64.3151C89.638 63.1018 89.4371 61.9745 89.0403 60.9432L89.0453 60.9381Z" fill="#8D7F59"/>
<path d="M127.573 19.0899H125.448V19.8988L125.378 23.1646C125.197 22.4922 124.875 21.8856 124.413 21.3447C123.951 20.8037 123.399 20.3285 122.756 19.9291C122.113 19.5298 121.399 19.2163 120.621 18.999C119.837 18.7816 119.023 18.6703 118.175 18.6703C116.863 18.6703 115.648 18.9282 114.518 19.4438C113.387 19.9595 112.408 20.6723 111.574 21.5772C110.74 22.4821 110.092 23.5387 109.63 24.752C109.168 25.9653 108.937 27.2595 108.937 28.6295C108.937 29.9996 109.173 31.2836 109.65 32.4868C110.122 33.69 110.77 34.7365 111.594 35.6263C112.413 36.516 113.392 37.2238 114.523 37.7394C115.653 38.2551 116.874 38.5129 118.18 38.5129C119.797 38.5129 121.259 38.1388 122.57 37.3906C123.881 36.6424 124.79 35.5706 125.302 34.1753V36.1116C125.302 37.2996 125.101 38.3511 124.705 39.2712C124.308 40.1862 123.78 40.9547 123.127 41.5765C122.474 42.1983 121.716 42.6634 120.857 42.9718C119.998 43.2802 119.119 43.4369 118.22 43.4369C117.707 43.4369 117.175 43.361 116.622 43.2043C116.07 43.0476 115.547 42.8555 115.06 42.623C115.045 42.6179 115.035 42.6129 115.025 42.6078L113.89 42.0921L112.714 43.9273C112.714 43.9273 112.996 44.1699 113.252 44.3266C113.342 44.3822 113.483 44.453 113.483 44.453C114.176 44.8221 114.894 45.1254 115.633 45.3579C116.426 45.6006 117.326 45.727 118.33 45.727C119.717 45.727 120.972 45.5096 122.103 45.0698C123.233 44.63 124.202 43.9728 125.011 43.0931C125.82 42.2135 126.448 41.1164 126.9 39.797C127.347 38.4775 127.573 36.9558 127.573 35.2218V19.8735C127.573 19.8735 127.573 19.8584 127.573 19.8533V19.0899ZM124.82 31.6476C124.448 32.5778 123.941 33.3918 123.298 34.0894C122.655 34.7871 121.897 35.3381 121.028 35.7375C120.154 36.1368 119.204 36.3391 118.18 36.3391C117.155 36.3391 116.21 36.1318 115.352 35.7172C114.493 35.3027 113.749 34.7466 113.116 34.049C112.488 33.3513 111.991 32.5374 111.634 31.6072C111.273 30.677 111.097 29.6811 111.097 28.6245C111.097 27.5679 111.273 26.5669 111.614 25.6216C111.961 24.6812 112.448 23.8522 113.076 23.1393C113.704 22.4265 114.457 21.8654 115.326 21.4559C116.2 21.0413 117.15 20.8341 118.175 20.8341C119.199 20.8341 120.159 21.0413 121.043 21.4559C121.927 21.8704 122.69 22.4316 123.333 23.1393C123.976 23.8522 124.474 24.6762 124.835 25.6216C125.192 26.5669 125.373 27.5679 125.373 28.6245C125.373 29.6811 125.187 30.7174 124.815 31.6476H124.82Z" fill="black"/>
<path d="M108.781 20.6521C108.781 20.6521 108.485 20.3386 108.128 20.0404C108.058 19.9848 107.872 19.8533 107.857 19.8432C107.772 19.7825 107.561 19.6562 107.536 19.641C107.525 19.641 107.515 19.6309 107.51 19.6258C107.139 19.4236 106.702 19.2467 106.189 19.095C105.481 18.8877 104.848 18.7866 104.286 18.7866C103.055 18.7866 101.995 19.0798 101.111 19.6612C100.227 20.2426 99.604 21.011 99.2423 21.9665L99.2021 19.8331C99.2021 19.8331 99.2021 19.8331 99.2021 19.828V19.1001H97.0522V19.8533H97.0622C97.0622 19.9039 97.0472 19.9393 97.0472 19.9898V38.0478H99.2473V26.8854C99.2473 26.1372 99.3679 25.4042 99.614 24.6964C99.8551 23.9836 100.197 23.3567 100.634 22.8158C101.071 22.2749 101.583 21.835 102.176 21.4963C102.764 21.1627 103.422 20.9908 104.14 20.9908C104.652 20.9908 105.155 21.0868 105.642 21.284C105.988 21.4205 106.3 21.5722 106.581 21.7289L107.46 22.3507L108.791 20.6521H108.781Z" fill="black"/>
<path d="M88.8394 19.095V30.5658C88.8394 31.3645 88.6836 32.1077 88.3772 32.7952C88.0708 33.4827 87.6438 34.0793 87.1064 34.5949C86.5689 35.1106 85.946 35.5201 85.2378 35.8184C84.5295 36.1166 83.7961 36.2632 83.0225 36.2632C82.249 36.2632 81.4754 36.1166 80.7722 35.8184C80.0639 35.5201 79.441 35.1207 78.9036 34.6152C78.3661 34.1096 77.9391 33.5181 77.6327 32.8306C77.3263 32.1481 77.1706 31.405 77.1706 30.6012V19.0899H74.9353V30.5203C74.9353 31.6325 75.1412 32.6688 75.5531 33.6395C75.965 34.6101 76.5276 35.4544 77.2459 36.1773C77.9642 36.9002 78.8031 37.4715 79.7676 37.881C80.732 38.2955 81.7517 38.5028 82.8267 38.5028C84.1628 38.5028 85.3282 38.1792 86.3278 37.5321C87.3274 36.885 88.1612 36.0711 88.8293 35.0904L88.985 37.34C88.985 37.34 88.985 37.3451 88.985 37.3501V38.0276H89.6883C89.6883 38.0276 89.7033 38.0276 89.7134 38.0276H90.3312C90.3312 38.0276 90.3513 38.0276 90.3614 38.0276H91.0646V19.0899H88.8293L88.8394 19.095Z" fill="black"/>
<path d="M68.7769 25.3334V33.8215C67.9531 34.4938 66.8882 35.055 65.5822 35.5049C64.2711 35.9549 62.9651 36.1823 61.6541 36.1823C59.9362 36.1823 58.3187 35.8537 56.8017 35.1915C55.2847 34.5343 53.9637 33.6344 52.8334 32.4969C51.7032 31.3595 50.8141 30.0299 50.1561 28.5032C49.5031 26.9815 49.1716 25.3637 49.1716 23.6601C49.1716 21.9564 49.4981 20.3083 50.1561 18.7967C50.8091 17.2852 51.7032 15.9657 52.8334 14.8434C53.9637 13.7211 55.2898 12.8263 56.8168 12.1691C58.3438 11.5119 59.9663 11.1833 61.6893 11.1833C63.151 11.1833 64.5123 11.4411 65.7731 11.9567C66.7576 12.3612 67.6919 12.8566 68.5659 13.438L69.7313 14.257L71.0574 12.5684C71.0574 12.5684 70.8012 12.346 70.5199 12.1135C70.2236 11.8657 69.9021 11.5978 69.7916 11.5321C68.7719 10.8193 67.6819 10.2328 66.5265 9.78796C65.0497 9.22175 63.4273 8.93359 61.6541 8.93359C59.6247 8.93359 57.721 9.31781 55.9378 10.0761C54.1545 10.8395 52.5923 11.886 51.2612 13.2155C49.925 14.5451 48.8752 16.1022 48.1016 17.8868C47.3331 19.6713 46.9463 21.5924 46.9463 23.6601C46.9463 25.7277 47.3231 27.6185 48.0816 29.4131C48.84 31.2078 49.8798 32.7699 51.2009 34.0995C52.522 35.4291 54.0842 36.4756 55.8775 37.2389C57.6758 38.0023 59.6147 38.3815 61.6943 38.3815C63.4373 38.3815 65.0748 38.0832 66.6019 37.4917C67.1896 37.2642 68.0737 36.9255 68.8171 36.4655C70.0126 35.7274 70.9971 34.8376 70.9971 34.8376L71.0524 25.3233H68.7819L68.7769 25.3334Z" fill="black"/>
<path d="M25.4221 38.0832L15.2252 13.2509L14.2908 11.0114L13.7936 9.79807C13.7785 9.76268 13.7634 9.73741 13.7484 9.70707L13.5675 9.27231H11.9752L11.7692 9.76268C11.7692 9.76268 11.7592 9.78291 11.7542 9.79302L10.3125 13.2509L0.35162 37.2288C0.336551 37.2693 0.321481 37.3046 0.306412 37.34L0 38.0781H2.37092L5.32956 30.8691H20.0675L21.3082 33.9125L22.9759 38.0781H25.4171L25.4221 38.0832ZM12.7086 12.9072L13.7684 15.4905L19.1432 28.67H6.24377L12.7086 12.9122V12.9072Z" fill="black"/>
<path d="M29.079 9.28747C29.079 9.28747 29.079 9.98007 29.079 9.98512V38.0427H31.2741V36.971C31.2741 36.971 31.2741 36.971 31.2741 36.9659L31.3143 11.0215V9.29253H29.084L29.079 9.28747Z" fill="black"/>
<path d="M111.79 56.3636H109.665V57.1725L109.595 60.4383C109.414 59.7659 109.093 59.1593 108.631 58.6183C108.168 58.0774 107.616 57.6022 106.973 57.2028C106.33 56.8034 105.617 56.49 104.838 56.2726C104.054 56.0552 103.241 55.944 102.392 55.944C101.081 55.944 99.8652 56.2018 98.735 56.7175C97.6047 57.2331 96.6252 57.946 95.7914 58.8509C94.9576 59.7558 94.3096 60.8124 93.8474 62.0257C93.3853 63.239 93.1542 64.5332 93.1542 65.9032C93.1542 67.2732 93.3903 68.5573 93.8675 69.7605C94.3397 70.9637 94.9877 72.0102 95.8115 72.8999C96.6302 73.7897 97.6098 74.4974 98.74 75.0131C99.8702 75.5287 101.091 75.7866 102.397 75.7866C104.014 75.7866 105.476 75.4125 106.787 74.6643C108.098 73.9161 109.007 72.8443 109.52 71.449V73.3852C109.52 74.5733 109.319 75.6248 108.922 76.5449C108.525 77.4599 107.998 78.2283 107.345 78.8502C106.692 79.472 105.933 79.9371 105.074 80.2454C104.215 80.5538 103.336 80.7105 102.437 80.7105C101.925 80.7105 101.392 80.6347 100.84 80.478C100.287 80.3213 99.7647 80.1292 99.2775 79.8966C99.2624 79.8916 99.2523 79.8865 99.2423 79.8815L98.1071 79.3658L96.9316 81.2009C96.9316 81.2009 97.2129 81.4436 97.4691 81.6003C97.5595 81.6559 97.7002 81.7267 97.7002 81.7267C98.3934 82.0957 99.1117 82.3991 99.8501 82.6316C100.644 82.8743 101.543 83.0006 102.548 83.0006C103.934 83.0006 105.19 82.7833 106.32 82.3435C107.45 81.9036 108.42 81.2464 109.228 80.3668C110.037 79.4871 110.665 78.3901 111.117 77.0706C111.564 75.7512 111.79 74.2295 111.79 72.4955V57.1472C111.79 57.1472 111.79 57.132 111.79 57.127V56.3636ZM109.042 68.9263C108.671 69.8565 108.163 70.6705 107.52 71.3681C106.877 72.0658 106.119 72.6168 105.25 73.0162C104.376 73.4156 103.427 73.6178 102.402 73.6178C101.377 73.6178 100.433 73.4105 99.5738 72.996C98.7149 72.5814 97.9714 72.0253 97.3385 71.3277C96.7106 70.63 96.2133 69.8161 95.8567 68.8859C95.495 67.9557 95.3192 66.9598 95.3192 65.9032C95.3192 64.8466 95.495 63.8456 95.8366 62.9003C96.1832 61.96 96.6704 61.1309 97.2983 60.4181C97.9262 59.7053 98.6797 59.1441 99.5487 58.7346C100.423 58.3201 101.372 58.1128 102.397 58.1128C103.422 58.1128 104.381 58.3201 105.265 58.7346C106.149 59.1492 106.913 59.7103 107.556 60.4181C108.199 61.1309 108.696 61.9549 109.058 62.9003C109.414 63.8456 109.595 64.8466 109.595 65.9032C109.595 66.9598 109.409 67.9961 109.037 68.9263H109.042Z" fill="black"/>
<path d="M20.7255 72.4702V46.546H18.5806V74.6289H36.3274V72.4702H20.7255Z" fill="black"/>
<path d="M41.9182 49.5135C41.5716 49.1647 41.1396 48.9877 40.6272 48.9877C40.1148 48.9877 39.723 49.1596 39.3764 49.5135C39.0298 49.8623 38.854 50.2971 38.854 50.8128C38.854 51.3284 39.0298 51.7227 39.3764 52.0716C39.723 52.4204 40.14 52.5973 40.6272 52.5973C41.1396 52.5973 41.5716 52.4204 41.9182 52.0716C42.2647 51.7227 42.4406 51.3031 42.4406 50.8128C42.4406 50.2971 42.2698 49.8623 41.9182 49.5135Z" fill="black"/>
<path d="M39.5472 56.3586V75.3265H41.7825V56.3586H39.5472Z" fill="black"/>
<path d="M68.0435 49.5135C67.6969 49.1647 67.2649 48.9877 66.7526 48.9877C66.2402 48.9877 65.8484 49.1596 65.5018 49.5135C65.1552 49.8623 64.9794 50.2971 64.9794 50.8128C64.9794 51.3284 65.1552 51.7227 65.5018 52.0716C65.8484 52.4204 66.2653 52.5973 66.7526 52.5973C67.2649 52.5973 67.6969 52.4204 68.0435 52.0716C68.3901 51.7227 68.5659 51.3031 68.5659 50.8128C68.5659 50.2971 68.3952 49.8623 68.0435 49.5135Z" fill="black"/>
<path d="M65.6726 56.3586V75.3265H67.9079V56.3586H65.6726Z" fill="black"/>
<path d="M61.9454 56.121H59.5896L59.3083 56.8237V56.8287L53.4011 71.1103L47.4888 56.8237L47.2075 56.121H44.8517L46.2029 59.3514L52.0398 73.365L52.0498 73.3953L52.3462 74.0981V74.1031L52.5672 74.6289H54.2349L54.7573 73.365L61.4733 57.2483L61.9454 56.121Z" fill="black"/>
<path d="M89.0453 60.9388C88.6485 59.9075 88.1009 59.0177 87.4078 58.2847C86.7146 57.5466 85.8908 56.9753 84.9414 56.5608C83.992 56.1462 82.9623 55.939 81.8572 55.939C80.5461 55.939 79.3607 56.2625 78.2907 56.9096C77.2258 57.5567 76.3719 58.3605 75.7289 59.316L75.6486 56.3687H73.4936V75.3366H75.6888V63.7142C75.6888 62.9357 75.8545 62.2026 76.1911 61.5201C76.5226 60.8326 76.9596 60.2361 77.5021 59.7305C78.0396 59.225 78.6725 58.8307 79.3908 58.5476C80.1091 58.2645 80.8576 58.1178 81.6261 58.1178C82.3947 58.1178 83.1682 58.2645 83.8614 58.5627C84.5546 58.861 85.1674 59.2705 85.6898 59.7861C86.2173 60.3069 86.6342 60.9135 86.9406 61.6111C87.247 62.3088 87.4027 63.0621 87.4027 63.8659V75.3316H89.638V64.3158C89.638 63.1025 89.4371 61.9751 89.0403 60.9438L89.0453 60.9388Z" fill="black"/>
</svg>
