<svg width="22" height="23" viewBox="0 0 22 23" fill="none" xmlns="http://www.w3.org/2000/svg">
<g clip-path="url(#clip0_1685_739)">
<path d="M15.3158 2.28906H3.08699C1.38486 2.28906 0 3.70016 0 5.43456V17.8954C0 19.6298 1.38486 21.0409 3.08699 21.0409H15.3161C17.0182 21.0409 18.4031 19.6298 18.4031 17.8954V5.43456C18.4031 3.70016 17.0182 2.28906 15.3161 2.28906H15.3158ZM3.08699 3.27158H15.3161C16.4866 3.27158 17.4388 4.24179 17.4388 5.43456V6.23308H0.963931V5.43456C0.963931 4.24179 1.9161 3.27158 3.08668 3.27158H3.08699ZM15.3158 20.0583H3.08699C1.91642 20.0583 0.964249 19.0881 0.964249 17.8954V7.21527H17.4388V17.8951C17.4388 19.0878 16.4866 20.058 15.3161 20.058L15.3158 20.0583Z" fill="#545454"/>
<path d="M5.59341 1.57714C5.59341 0.948814 5.09353 0.439453 4.47688 0.439453C3.86024 0.439453 3.36035 0.948814 3.36035 1.57714V4.00737C3.36035 4.6357 3.86024 5.14506 4.47688 5.14506C5.09353 5.14506 5.59341 4.6357 5.59341 4.00737V1.57714Z" fill="#F6F5F2"/>
<path d="M4.47666 5.58479C3.62305 5.58479 2.92871 4.8773 2.92871 4.00751V1.57728C2.92871 0.707493 3.62305 0 4.47666 0C5.33027 0 6.02461 0.707493 6.02461 1.57728V4.00751C6.02461 4.8773 5.33027 5.58479 4.47666 5.58479ZM4.47666 0.879183C4.09897 0.879183 3.79154 1.19244 3.79154 1.57728V4.00751C3.79154 4.39235 4.09897 4.70561 4.47666 4.70561C4.85435 4.70561 5.16177 4.39235 5.16177 4.00751V1.57728C5.16177 1.19244 4.85435 0.879183 4.47666 0.879183Z" fill="#545454"/>
<path d="M15.0641 1.57714C15.0641 0.948814 14.5642 0.439453 13.9476 0.439453C13.3309 0.439453 12.8311 0.948814 12.8311 1.57714V4.00737C12.8311 4.6357 13.3309 5.14506 13.9476 5.14506C14.5642 5.14506 15.0641 4.6357 15.0641 4.00737V1.57714Z" fill="#F6F5F2"/>
<path d="M13.9474 5.58479C13.0937 5.58479 12.3994 4.8773 12.3994 4.00751V1.57728C12.3994 0.707493 13.0937 0 13.9474 0C14.801 0 15.4953 0.707493 15.4953 1.57728V4.00751C15.4953 4.8773 14.801 5.58479 13.9474 5.58479ZM13.9474 0.879183C13.5697 0.879183 13.2622 1.19244 13.2622 1.57728V4.00751C13.2622 4.39235 13.5697 4.70561 13.9474 4.70561C14.325 4.70561 14.6325 4.39235 14.6325 4.00751V1.57728C14.6325 1.19244 14.325 0.879183 13.9474 0.879183Z" fill="#545454"/>
<path d="M15.3947 22.4328C18.7355 22.4328 21.4438 19.6732 21.4438 16.2691C21.4438 12.865 18.7355 10.1055 15.3947 10.1055C12.054 10.1055 9.3457 12.865 9.3457 16.2691C9.3457 19.6732 12.054 22.4328 15.3947 22.4328Z" fill="#F6F5F2"/>
<path d="M15.3948 23.0009C11.753 23.0009 8.79004 19.9817 8.79004 16.2709C8.79004 12.5602 11.753 9.54102 15.3948 9.54102C19.0366 9.54102 21.9996 12.5602 21.9996 16.2709C21.9996 19.9817 19.0366 23.0009 15.3948 23.0009ZM15.3948 10.6735C12.366 10.6735 9.90148 13.1844 9.90148 16.2709C9.90148 19.3575 12.3657 21.8684 15.3948 21.8684C18.4239 21.8684 20.8881 19.3575 20.8881 16.2709C20.8881 13.1844 18.4239 10.6735 15.3948 10.6735Z" fill="#545454"/>
<path d="M15.8417 16.5873V13.4609C15.8417 13.0845 15.5422 12.7793 15.1728 12.7793C14.8034 12.7793 14.5039 13.0845 14.5039 13.4609V17.2005L14.5058 17.2031L15.9736 19.4742C16.1768 19.7885 16.5917 19.8756 16.9001 19.6686C17.2084 19.4616 17.294 19.0389 17.0908 18.7246L15.9517 16.9624C15.8799 16.8509 15.8414 16.7207 15.8414 16.5876L15.8417 16.5873Z" fill="#545454"/>
</g>
<defs>
<clipPath id="clip0_1685_739">
<rect width="22" height="23" fill="white"/>
</clipPath>
</defs>
</svg>
