<svg width="23" height="23" viewBox="0 0 23 23" fill="none" xmlns="http://www.w3.org/2000/svg">
<g clip-path="url(#clip0_3135_521)">
<path d="M19.6121 10.5172V4.71643C19.6121 3.33777 18.4831 2.19906 17.1043 2.19906H16.792V1.80583C16.792 0.822172 15.9946 0.0247374 15.0109 0.0247374C14.0273 0.0247374 13.2298 0.822172 13.2298 1.80583V2.19906H6.69915V1.80583C6.69915 0.808517 5.89063 0 4.89331 0C3.896 0 3.08748 0.808517 3.08748 1.80583V2.19906H2.8176C1.43888 2.19906 0.316895 3.33777 0.316895 4.71643V18.0362C0.316895 19.415 1.43888 20.5542 2.8176 20.5542H10.664C11.9576 22.1016 13.8697 22.997 15.8866 23C19.6319 23 22.6827 19.9485 22.6827 16.2032C22.6828 13.8293 21.4426 11.732 19.6121 10.5172ZM14.2193 1.80583C14.2117 1.37491 14.5548 1.01938 14.9857 1.01176C14.9927 1.01166 14.9996 1.01161 15.0065 1.01166C15.4415 1.00706 15.7979 1.35596 15.8025 1.79099C15.8026 1.79594 15.8026 1.80088 15.8025 1.80583V3.73278H14.2193V1.80583ZM4.07698 1.80583C4.08168 1.36249 4.44492 1.00691 4.88827 1.01161C4.88906 1.01161 4.8898 1.01161 4.89054 1.01166C5.33552 1.01166 5.70965 1.3609 5.70965 1.80583V3.73278H4.07698V1.80583ZM1.30639 4.71643C1.30639 3.88333 1.98449 3.18855 2.8176 3.18855H3.08748V4.24811C3.08748 4.52131 3.31566 4.72227 3.58891 4.72227H6.19228C6.46548 4.72227 6.69915 4.52131 6.69915 4.24811V3.18855H13.2298V4.24811C13.2225 4.50265 13.4229 4.71495 13.6775 4.72227C13.6866 4.72252 13.6957 4.72252 13.7048 4.72227H16.3081C16.5667 4.73088 16.7832 4.52828 16.7918 4.26978C16.7921 4.26255 16.7921 4.25533 16.792 4.24811V3.18855H17.1043C17.9431 3.19701 18.6194 3.87769 18.6226 4.71643V6.30547H1.30639V4.71643ZM2.8176 19.5647C1.98449 19.5647 1.30639 18.8693 1.30639 18.0362V7.29496H18.6226V9.97917C17.7614 9.60103 16.8309 9.406 15.8904 9.40635C12.1451 9.40635 9.09615 12.4623 9.09615 16.2076C9.09427 17.3843 9.39839 18.5411 9.97873 19.5647H2.8176ZM15.8866 22.0017C12.6817 22.0017 10.0837 19.4036 10.0837 16.1987C10.0837 12.9939 12.6817 10.3958 15.8866 10.3958C19.0915 10.3958 21.6896 12.9939 21.6896 16.1987V16.1988C21.686 19.4021 19.09 21.9981 15.8866 22.0017Z" fill="white"/>
<path d="M18.2175 16.2002H16.05V13.2233C16.05 12.95 15.8285 12.7285 15.5553 12.7285C15.282 12.7285 15.0605 12.95 15.0605 13.2233V16.6944C15.0649 16.9695 15.2894 17.1902 15.5646 17.1897H18.2175C18.4908 17.1897 18.7123 16.9682 18.7123 16.6949C18.7123 16.4217 18.4908 16.2002 18.2175 16.2002Z" fill="white"/>
</g>
<defs>
<clipPath id="clip0_3135_521">
<rect width="23" height="23" fill="white"/>
</clipPath>
</defs>
</svg>
