<svg width="178" height="91" viewBox="0 0 178 91" fill="none" xmlns="http://www.w3.org/2000/svg">
<path d="M138.41 21.6601H136.104V22.5376L136.028 26.0809C135.832 25.3514 135.483 24.6932 134.982 24.1063C134.48 23.5194 133.881 23.0039 133.183 22.5706C132.486 22.1373 131.712 21.7972 130.867 21.5613C130.017 21.3255 129.134 21.2048 128.213 21.2048C126.791 21.2048 125.472 21.4846 124.245 22.044C123.019 22.6035 121.957 23.3768 121.052 24.3586C120.147 25.3404 119.444 26.4868 118.943 27.8031C118.441 29.1195 118.191 30.5236 118.191 32.01C118.191 33.4964 118.447 34.8896 118.965 36.195C119.477 37.5004 120.18 38.6357 121.074 39.6011C121.962 40.5664 123.025 41.3343 124.251 41.8937C125.477 42.4532 126.801 42.7329 128.218 42.7329C129.973 42.7329 131.559 42.327 132.982 41.5153C134.404 40.7035 135.39 39.5407 135.946 38.0269V40.1276C135.946 41.4166 135.728 42.5574 135.298 43.5557C134.867 44.5484 134.295 45.3821 133.587 46.0567C132.878 46.7314 132.055 47.236 131.123 47.5706C130.191 47.9052 129.238 48.0752 128.262 48.0752C127.706 48.0752 127.128 47.9929 126.529 47.8229C125.929 47.6528 125.363 47.4444 124.834 47.1921C124.818 47.1866 124.807 47.1811 124.796 47.1757L123.564 46.6162L122.289 48.6072C122.289 48.6072 122.594 48.8705 122.872 49.0405C122.97 49.1009 123.123 49.1776 123.123 49.1776C123.875 49.578 124.654 49.9071 125.455 50.1594C126.316 50.4227 127.292 50.5598 128.382 50.5598C129.886 50.5598 131.249 50.324 132.475 49.8468C133.701 49.3696 134.753 48.6566 135.63 47.7022C136.508 46.7478 137.189 45.5576 137.679 44.1261C138.164 42.6945 138.41 41.0436 138.41 39.1623V22.5102C138.41 22.5102 138.41 22.4938 138.41 22.4883V21.6601ZM135.423 35.2845C135.02 36.2937 134.469 37.1768 133.772 37.9337C133.074 38.6906 132.251 39.2884 131.308 39.7217C130.36 40.155 129.33 40.3744 128.218 40.3744C127.107 40.3744 126.082 40.1496 125.15 39.6998C124.218 39.25 123.412 38.6467 122.725 37.8898C122.044 37.1329 121.504 36.2498 121.117 35.2406C120.725 34.2314 120.534 33.1509 120.534 32.0045C120.534 30.8582 120.725 29.7722 121.095 28.7465C121.472 27.7263 122 26.8268 122.681 26.0534C123.363 25.2801 124.18 24.6713 125.123 24.227C126.071 23.7772 127.101 23.5523 128.213 23.5523C129.325 23.5523 130.366 23.7772 131.325 24.227C132.284 24.6767 133.112 25.2856 133.81 26.0534C134.508 26.8268 135.047 27.7208 135.439 28.7465C135.826 29.7722 136.023 30.8582 136.023 32.0045C136.023 33.1509 135.821 34.2753 135.418 35.2845H135.423Z" fill="#8D7F59"/>
<path d="M118.022 23.3549C118.022 23.3549 117.7 23.0148 117.313 22.6912C117.237 22.6309 117.035 22.4883 117.019 22.4773C116.926 22.4115 116.697 22.2744 116.67 22.2579C116.659 22.2579 116.648 22.247 116.643 22.2415C116.24 22.0221 115.766 21.8301 115.21 21.6656C114.441 21.4407 113.755 21.331 113.144 21.331C111.809 21.331 110.659 21.6491 109.7 22.2799C108.741 22.9106 108.065 23.7443 107.673 24.781L107.629 22.4663C107.629 22.4663 107.629 22.4663 107.629 22.4609V21.671H105.296V22.4883H105.307C105.307 22.5431 105.291 22.5815 105.291 22.6364V42.2283H107.678V30.1177C107.678 29.306 107.809 28.5107 108.076 27.7428C108.337 26.9694 108.708 26.2893 109.182 25.7024C109.656 25.1155 110.212 24.6384 110.855 24.2709C111.493 23.9089 112.207 23.7224 112.986 23.7224C113.542 23.7224 114.087 23.8266 114.616 24.0405C114.992 24.1886 115.33 24.3531 115.635 24.5232L116.588 25.1978L118.033 23.3549H118.022Z" fill="#8D7F59"/>
<path d="M96.3859 21.6656V34.1107C96.3859 34.9773 96.2169 35.7836 95.8845 36.5295C95.5521 37.2755 95.0888 37.9227 94.5057 38.4822C93.9226 39.0416 93.2468 39.4859 92.4784 39.8095C91.7099 40.1331 90.9142 40.2922 90.075 40.2922C89.2357 40.2922 88.3964 40.1331 87.6335 39.8095C86.865 39.4859 86.1892 39.0526 85.6061 38.5041C85.023 37.9556 84.5597 37.3139 84.2273 36.5679C83.8949 35.8275 83.7259 35.0212 83.7259 34.1491V21.6601H81.3007V34.0614C81.3007 35.268 81.5242 36.3924 81.9711 37.4455C82.418 38.4986 83.0283 39.4146 83.8077 40.1989C84.587 40.9833 85.4971 41.603 86.5435 42.0473C87.5899 42.4971 88.6962 42.722 89.8624 42.722C91.3121 42.722 92.5765 42.3709 93.661 41.6689C94.7455 40.9668 95.6502 40.0837 96.375 39.0197L96.5439 41.4604C96.5439 41.4604 96.5439 41.4659 96.5439 41.4714V42.2064H97.3069C97.3069 42.2064 97.3233 42.2064 97.3342 42.2064H98.0045C98.0045 42.2064 98.0263 42.2064 98.0372 42.2064H98.8002V21.6601H96.375L96.3859 21.6656Z" fill="#8D7F59"/>
<path d="M74.6192 28.4339V37.643C73.7255 38.3725 72.5701 38.9813 71.1531 39.4694C69.7307 39.9576 68.3138 40.2044 66.8913 40.2044C65.0275 40.2044 63.2727 39.8479 61.6268 39.1294C59.981 38.4163 58.5476 37.44 57.3214 36.2059C56.0952 34.9718 55.1306 33.5293 54.4167 31.8729C53.7082 30.2219 53.3485 28.4668 53.3485 26.6184C53.3485 24.77 53.7027 22.9819 54.4167 21.3419C55.1251 19.702 56.0952 18.2704 57.3214 17.0528C58.5476 15.8351 59.9864 14.8643 61.6432 14.1513C63.2999 13.4383 65.0602 13.0817 66.9295 13.0817C68.5154 13.0817 69.9923 13.3615 71.3602 13.9209C72.4284 14.3597 73.4421 14.8972 74.3903 15.528L75.6547 16.4165L77.0935 14.5846C77.0935 14.5846 76.8155 14.3433 76.5103 14.091C76.1888 13.8222 75.84 13.5315 75.7201 13.4602C74.6138 12.6868 73.4312 12.0506 72.1777 11.5679C70.5754 10.9536 68.8151 10.641 66.8913 10.641C64.6896 10.641 62.6241 11.0578 60.6894 11.8806C58.7547 12.7088 57.0598 13.8441 55.6156 15.2867C54.166 16.7292 53.027 18.4185 52.1877 20.3547C51.3539 22.2908 50.9342 24.3751 50.9342 26.6184C50.9342 28.8617 51.343 30.913 52.1659 32.8602C52.9888 34.8073 54.1169 36.5021 55.5502 37.9446C56.9835 39.3872 58.6784 40.5225 60.624 41.3507C62.5751 42.179 64.6787 42.5903 66.935 42.5903C68.826 42.5903 70.6027 42.2667 72.2594 41.625C72.8971 41.3782 73.8562 41.0107 74.6628 40.5116C75.9599 39.7108 77.0281 38.7454 77.0281 38.7454L77.088 28.4229H74.6247L74.6192 28.4339Z" fill="#8D7F59"/>
<path d="M27.5816 42.2667L16.5185 15.3251L15.5048 12.8953L14.9653 11.5789C14.9489 11.5405 14.9326 11.5131 14.9162 11.4802L14.72 11.0085H12.9924L12.769 11.5405C12.769 11.5405 12.7581 11.5624 12.7526 11.5734L11.1885 15.3251L0.381489 41.3398C0.365139 41.3836 0.34879 41.422 0.33244 41.4604L0 42.2612H2.57232L5.78228 34.4398H21.7721L23.1182 37.7417L24.9276 42.2612H27.5762L27.5816 42.2667ZM13.7881 14.9521L14.938 17.7548L20.7693 32.0539H6.77415L13.7881 14.9576V14.9521Z" fill="#8D7F59"/>
<path d="M31.5491 11.0249C31.5491 11.0249 31.5491 11.7763 31.5491 11.7818V42.2228H33.9307V41.06C33.9307 41.06 33.9307 41.06 33.9307 41.0546L33.9743 12.9062V11.0304H31.5546L31.5491 11.0249Z" fill="#8D7F59"/>
<path d="M165.997 25.1101L153.993 13.0296L141.99 0.949219H165.997V25.1101Z" fill="#8D7F59"/>
<path d="M121.286 62.1H118.981V62.9776L118.905 66.5208C118.708 65.7913 118.36 65.1331 117.858 64.5462C117.357 63.9594 116.757 63.4438 116.06 63.0105C115.362 62.5772 114.588 62.2371 113.744 62.0013C112.893 61.7654 112.011 61.6447 111.09 61.6447C109.667 61.6447 108.348 61.9245 107.122 62.4839C105.896 63.0434 104.833 63.8167 103.928 64.7985C103.024 65.7803 102.321 66.9267 101.819 68.243C101.318 69.5594 101.067 70.9635 101.067 72.4499C101.067 73.9363 101.323 75.3295 101.841 76.6349C102.353 77.9403 103.056 79.0756 103.95 80.041C104.839 81.0063 105.901 81.7742 107.128 82.3337C108.354 82.8931 109.678 83.1728 111.095 83.1728C112.85 83.1728 114.436 82.767 115.858 81.9552C117.281 81.1434 118.267 79.9806 118.823 78.4668V80.5675C118.823 81.8565 118.605 82.9973 118.174 83.9956C117.744 84.9883 117.172 85.822 116.463 86.4967C115.755 87.1713 114.932 87.6759 114 88.0105C113.068 88.3451 112.114 88.5151 111.139 88.5151C110.583 88.5151 110.005 88.4328 109.406 88.2628C108.806 88.0928 108.239 87.8843 107.711 87.632C107.694 87.6265 107.683 87.6211 107.673 87.6156L106.441 87.0561L105.166 89.0471C105.166 89.0471 105.471 89.3104 105.749 89.4804C105.847 89.5408 105.999 89.6176 105.999 89.6176C106.751 90.018 107.531 90.347 108.332 90.5993C109.193 90.8626 110.169 90.9997 111.259 90.9997C112.763 90.9997 114.125 90.7639 115.351 90.2867C116.578 89.8095 117.629 89.0965 118.507 88.1421C119.384 87.1878 120.065 85.9975 120.556 84.566C121.041 83.1344 121.286 81.4835 121.286 79.6022V62.9501C121.286 62.9501 121.286 62.9337 121.286 62.9282V62.1ZM118.305 75.7299C117.902 76.7391 117.351 77.6222 116.654 78.3791C115.956 79.136 115.133 79.7338 114.191 80.1671C113.242 80.6004 112.212 80.8198 111.1 80.8198C109.989 80.8198 108.964 80.5949 108.032 80.1452C107.1 79.6954 106.294 79.0921 105.607 78.3352C104.926 77.5783 104.386 76.6952 103.999 75.686C103.607 74.6768 103.416 73.5963 103.416 72.4499C103.416 71.3036 103.607 70.2176 103.978 69.1919C104.354 68.1717 104.882 67.2722 105.563 66.4988C106.245 65.7255 107.062 65.1167 108.005 64.6724C108.953 64.2226 109.983 63.9977 111.095 63.9977C112.207 63.9977 113.248 64.2226 114.207 64.6724C115.166 65.1221 115.994 65.731 116.692 66.4988C117.39 67.2722 117.929 68.1662 118.322 69.1919C118.708 70.2176 118.905 71.3036 118.905 72.4499C118.905 73.5963 118.703 74.7207 118.3 75.7299H118.305Z" fill="#8D7F59"/>
<path d="M22.486 79.5748V51.4484H20.159V81.9168H39.4133V79.5748H22.486Z" fill="#8D7F59"/>
<path d="M45.4789 54.668C45.1029 54.2895 44.6342 54.0976 44.0783 54.0976C43.5224 54.0976 43.0973 54.2841 42.7213 54.668C42.3453 55.0464 42.1545 55.5181 42.1545 56.0776C42.1545 56.6371 42.3453 57.0649 42.7213 57.4433C43.0973 57.8218 43.5497 58.0138 44.0783 58.0138C44.6342 58.0138 45.1029 57.8218 45.4789 57.4433C45.855 57.0649 46.0457 56.6096 46.0457 56.0776C46.0457 55.5181 45.8604 55.0464 45.4789 54.668Z" fill="#8D7F59"/>
<path d="M42.9066 62.0945V82.6737H45.3318V62.0945H42.9066Z" fill="#8D7F59"/>
<path d="M73.8236 54.668C73.4475 54.2895 72.9788 54.0976 72.4229 54.0976C71.8671 54.0976 71.442 54.2841 71.0659 54.668C70.6899 55.0464 70.4991 55.5181 70.4991 56.0776C70.4991 56.6371 70.6899 57.0649 71.0659 57.4433C71.442 57.8218 71.8943 58.0138 72.4229 58.0138C72.9788 58.0138 73.4475 57.8218 73.8236 57.4433C74.1996 57.0649 74.3903 56.6096 74.3903 56.0776C74.3903 55.5181 74.205 55.0464 73.8236 54.668Z" fill="#8D7F59"/>
<path d="M71.2512 62.0945V82.6737H73.6764V62.0945H71.2512Z" fill="#8D7F59"/>
<path d="M67.2074 61.8367H64.6515L64.3463 62.5991V62.6046L57.9373 78.0993L51.5228 62.5991L51.2176 61.8367H48.6616L50.1276 65.3415L56.4604 80.5456L56.4713 80.5785L56.7928 81.3409V81.3464L57.0326 81.9168H58.8419L59.4087 80.5456L66.6952 63.0598L67.2074 61.8367Z" fill="#8D7F59"/>
<path d="M96.6093 67.0638C96.1788 65.9449 95.5848 64.9795 94.8327 64.1842C94.0806 63.3834 93.1868 62.7637 92.1568 62.3139C91.1268 61.8641 90.0096 61.6393 88.8106 61.6393C87.3882 61.6393 86.102 61.9903 84.9412 62.6923C83.7859 63.3944 82.8594 64.2665 82.1618 65.3031L82.0746 62.1055H79.7366V82.6847H82.1182V70.075C82.1182 69.2303 82.298 68.435 82.6632 67.6945C83.0229 66.9486 83.497 66.3014 84.0856 65.7529C84.6687 65.2044 85.3554 64.7766 86.1347 64.4694C86.9141 64.1623 87.7261 64.0032 88.5599 64.0032C89.3937 64.0032 90.233 64.1623 90.9851 64.4859C91.7372 64.8095 92.4021 65.2538 92.9688 65.8132C93.5411 66.3782 93.9934 67.0364 94.3259 67.7933C94.6583 68.5502 94.8272 69.3674 94.8272 70.2395V82.6792H97.2524V70.7277C97.2524 69.4113 97.0344 68.1882 96.6039 67.0693L96.6093 67.0638Z" fill="#8D7F59"/>
<path d="M138.41 21.6597H136.104V22.5373L136.028 26.0805C135.832 25.351 135.483 24.6929 134.982 24.106C134.48 23.5191 133.881 23.0035 133.183 22.5702C132.486 22.1369 131.712 21.7968 130.867 21.561C130.017 21.3251 129.134 21.2045 128.213 21.2045C126.791 21.2045 125.472 21.4842 124.245 22.0437C123.019 22.6031 121.957 23.3765 121.052 24.3583C120.147 25.3401 119.444 26.4864 118.943 27.8028C118.441 29.1191 118.191 30.5233 118.191 32.0097C118.191 33.4961 118.447 34.8892 118.965 36.1946C119.477 37.5 120.18 38.6354 121.074 39.6007C121.962 40.5661 123.025 41.3339 124.251 41.8934C125.477 42.4528 126.801 42.7326 128.218 42.7326C129.973 42.7326 131.559 42.3267 132.982 41.5149C134.404 40.7032 135.39 39.5404 135.946 38.0266V40.1273C135.946 41.4162 135.728 42.5571 135.298 43.5553C134.867 44.5481 134.295 45.3818 133.587 46.0564C132.878 46.731 132.055 47.2356 131.123 47.5702C130.191 47.9048 129.238 48.0748 128.262 48.0748C127.706 48.0748 127.128 47.9925 126.529 47.8225C125.929 47.6525 125.363 47.4441 124.834 47.1918C124.818 47.1863 124.807 47.1808 124.796 47.1753L123.564 46.6159L122.289 48.6069C122.289 48.6069 122.594 48.8701 122.872 49.0402C122.97 49.1005 123.123 49.1773 123.123 49.1773C123.875 49.5777 124.654 49.9068 125.455 50.1591C126.316 50.4224 127.292 50.5595 128.382 50.5595C129.886 50.5595 131.249 50.3236 132.475 49.8464C133.701 49.3693 134.753 48.6562 135.63 47.7019C136.508 46.7475 137.189 45.5573 137.679 44.1257C138.164 42.6942 138.41 41.0432 138.41 39.1619V22.5099C138.41 22.5099 138.41 22.4934 138.41 22.4879V21.6597ZM135.423 35.2841C135.02 36.2933 134.469 37.1764 133.772 37.9333C133.074 38.6902 132.251 39.2881 131.308 39.7214C130.36 40.1547 129.33 40.3741 128.218 40.3741C127.107 40.3741 126.082 40.1492 125.15 39.6994C124.218 39.2497 123.412 38.6463 122.725 37.8894C122.044 37.1325 121.504 36.2495 121.117 35.2402C120.725 34.231 120.534 33.1505 120.534 32.0042C120.534 30.8578 120.725 29.7718 121.095 28.7462C121.472 27.726 122 26.8265 122.681 26.0531C123.363 25.2797 124.18 24.6709 125.123 24.2266C126.071 23.7769 127.101 23.552 128.213 23.552C129.325 23.552 130.366 23.7769 131.325 24.2266C132.284 24.6764 133.112 25.2852 133.81 26.0531C134.508 26.8265 135.047 27.7205 135.439 28.7462C135.826 29.7718 136.023 30.8578 136.023 32.0042C136.023 33.1505 135.821 34.2749 135.418 35.2841H135.423Z" fill="black"/>
<path d="M118.022 23.3545C118.022 23.3545 117.7 23.0145 117.313 22.6909C117.237 22.6305 117.035 22.4879 117.019 22.477C116.926 22.4111 116.697 22.274 116.67 22.2576C116.659 22.2576 116.648 22.2466 116.643 22.2411C116.24 22.0217 115.766 21.8297 115.21 21.6652C114.441 21.4403 113.755 21.3306 113.144 21.3306C111.809 21.3306 110.659 21.6487 109.7 22.2795C108.741 22.9103 108.065 23.744 107.673 24.7806L107.629 22.466C107.629 22.466 107.629 22.466 107.629 22.4605V21.6707H105.296V22.4879H105.307C105.307 22.5428 105.291 22.5812 105.291 22.636V42.228H107.678V30.1174C107.678 29.3056 107.809 28.5103 108.076 27.7424C108.337 26.9691 108.708 26.2889 109.182 25.7021C109.656 25.1152 110.212 24.638 110.855 24.2705C111.493 23.9085 112.207 23.722 112.986 23.722C113.542 23.722 114.087 23.8262 114.616 24.0401C114.992 24.1882 115.33 24.3528 115.635 24.5228L116.588 25.1975L118.033 23.3545H118.022Z" fill="black"/>
<path d="M96.3859 21.6652V34.1104C96.3859 34.977 96.2169 35.7832 95.8845 36.5292C95.5521 37.2751 95.0888 37.9223 94.5057 38.4818C93.9226 39.0413 93.2468 39.4855 92.4784 39.8091C91.7099 40.1327 90.9142 40.2918 90.075 40.2918C89.2357 40.2918 88.3964 40.1327 87.6335 39.8091C86.865 39.4855 86.1892 39.0522 85.6061 38.5037C85.023 37.9553 84.5597 37.3135 84.2273 36.5676C83.8949 35.8271 83.7259 35.0208 83.7259 34.1488V21.6597H81.3007V34.061C81.3007 35.2677 81.5242 36.3921 81.9711 37.4452C82.418 38.4983 83.0283 39.4142 83.8077 40.1986C84.587 40.9829 85.4971 41.6027 86.5435 42.047C87.5899 42.4967 88.6962 42.7216 89.8624 42.7216C91.3121 42.7216 92.5765 42.3706 93.661 41.6685C94.7455 40.9664 95.6502 40.0834 96.375 39.0193L96.5439 41.4601C96.5439 41.4601 96.5439 41.4656 96.5439 41.471V42.206H97.3069C97.3069 42.206 97.3233 42.206 97.3342 42.206H98.0045C98.0045 42.206 98.0263 42.206 98.0372 42.206H98.8002V21.6597H96.375L96.3859 21.6652Z" fill="black"/>
<path d="M74.6192 28.4335V37.6426C73.7255 38.3721 72.5701 38.9809 71.1531 39.4691C69.7307 39.9572 68.3138 40.204 66.8913 40.204C65.0275 40.204 63.2727 39.8475 61.6268 39.129C59.981 38.416 58.5476 37.4397 57.3214 36.2056C56.0952 34.9715 55.1306 33.529 54.4167 31.8725C53.7082 30.2216 53.3485 28.4664 53.3485 26.618C53.3485 24.7696 53.7027 22.9816 54.4167 21.3416C55.1251 19.7016 56.0952 18.2701 57.3214 17.0524C58.5476 15.8348 59.9864 14.864 61.6432 14.1509C63.2999 13.4379 65.0602 13.0814 66.9295 13.0814C68.5154 13.0814 69.9923 13.3611 71.3602 13.9206C72.4284 14.3594 73.4421 14.8969 74.3903 15.5276L75.6547 16.4162L77.0935 14.5842C77.0935 14.5842 76.8155 14.3429 76.5103 14.0906C76.1888 13.8218 75.84 13.5311 75.7201 13.4598C74.6138 12.6865 73.4312 12.0502 72.1777 11.5676C70.5754 10.9533 68.8151 10.6406 66.8913 10.6406C64.6896 10.6406 62.6241 11.0575 60.6894 11.8802C58.7547 12.7084 57.0598 13.8438 55.6156 15.2863C54.166 16.7288 53.027 18.4182 52.1877 20.3543C51.3539 22.2905 50.9342 24.3747 50.9342 26.618C50.9342 28.8613 51.343 30.9127 52.1659 32.8598C52.9888 34.8069 54.1169 36.5018 55.5502 37.9443C56.9835 39.3868 58.6784 40.5222 60.624 41.3504C62.5751 42.1786 64.6787 42.59 66.935 42.59C68.826 42.59 70.6027 42.2664 72.2594 41.6246C72.8971 41.3778 73.8562 41.0103 74.6628 40.5112C75.9599 39.7104 77.0281 38.7451 77.0281 38.7451L77.088 28.4226H74.6247L74.6192 28.4335Z" fill="black"/>
<path d="M27.5816 42.2664L16.5185 15.3247L15.5048 12.8949L14.9653 11.5785C14.9489 11.5401 14.9326 11.5127 14.9162 11.4798L14.72 11.0081H12.9924L12.769 11.5401C12.769 11.5401 12.7581 11.5621 12.7526 11.5731L11.1885 15.3247L0.381489 41.3394C0.365139 41.3833 0.34879 41.4217 0.33244 41.4601L0 42.2609H2.57232L5.78228 34.4395H21.7721L23.1182 37.7413L24.9276 42.2609H27.5762L27.5816 42.2664ZM13.7881 14.9517L14.938 17.7545L20.7693 32.0535H6.77415L13.7881 14.9572V14.9517Z" fill="black"/>
<path d="M31.5491 11.0246C31.5491 11.0246 31.5491 11.776 31.5491 11.7815V42.2225H33.9307V41.0597C33.9307 41.0597 33.9307 41.0597 33.9307 41.0542L33.9743 12.9059V11.03H31.5546L31.5491 11.0246Z" fill="black"/>
<path d="M121.286 62.0996H118.981V62.9772L118.905 66.5204C118.708 65.7909 118.36 65.1328 117.858 64.5459C117.357 63.959 116.757 63.4434 116.06 63.0101C115.362 62.5768 114.588 62.2368 113.744 62.0009C112.893 61.7651 112.011 61.6444 111.09 61.6444C109.667 61.6444 108.348 61.9241 107.122 62.4836C105.896 63.043 104.833 63.8164 103.928 64.7982C103.024 65.78 102.321 66.9263 101.819 68.2427C101.318 69.5591 101.067 70.9632 101.067 72.4496C101.067 73.936 101.323 75.3291 101.841 76.6345C102.353 77.9399 103.056 79.0753 103.95 80.0406C104.839 81.006 105.901 81.7738 107.128 82.3333C108.354 82.8928 109.678 83.1725 111.095 83.1725C112.85 83.1725 114.436 82.7666 115.858 81.9548C117.281 81.1431 118.267 79.9803 118.823 78.4665V80.5672C118.823 81.8561 118.605 82.997 118.174 83.9952C117.744 84.988 117.172 85.8217 116.463 86.4963C115.755 87.1709 114.932 87.6756 114 88.0101C113.068 88.3447 112.114 88.5147 111.139 88.5147C110.583 88.5147 110.005 88.4325 109.406 88.2624C108.806 88.0924 108.239 87.884 107.711 87.6317C107.694 87.6262 107.683 87.6207 107.673 87.6152L106.441 87.0558L105.166 89.0468C105.166 89.0468 105.471 89.31 105.749 89.4801C105.847 89.5404 105.999 89.6172 105.999 89.6172C106.751 90.0176 107.531 90.3467 108.332 90.599C109.193 90.8623 110.169 90.9994 111.259 90.9994C112.763 90.9994 114.125 90.7635 115.351 90.2864C116.578 89.8092 117.629 89.0961 118.507 88.1418C119.384 87.1874 120.065 85.9972 120.556 84.5656C121.041 83.1341 121.286 81.4831 121.286 79.6018V62.9498C121.286 62.9498 121.286 62.9333 121.286 62.9278V62.0996ZM118.305 75.7295C117.902 76.7387 117.351 77.6218 116.654 78.3787C115.956 79.1356 115.133 79.7335 114.191 80.1668C113.242 80.6001 112.212 80.8195 111.1 80.8195C109.989 80.8195 108.964 80.5946 108.032 80.1448C107.1 79.6951 106.294 79.0917 105.607 78.3348C104.926 77.5779 104.386 76.6949 103.999 75.6856C103.607 74.6764 103.416 73.5959 103.416 72.4496C103.416 71.3032 103.607 70.2172 103.978 69.1916C104.354 68.1714 104.882 67.2719 105.563 66.4985C106.245 65.7251 107.062 65.1163 108.005 64.672C108.953 64.2223 109.983 63.9974 111.095 63.9974C112.207 63.9974 113.248 64.2223 114.207 64.672C115.166 65.1218 115.994 65.7306 116.692 66.4985C117.39 67.2719 117.929 68.1659 118.322 69.1916C118.708 70.2172 118.905 71.3032 118.905 72.4496C118.905 73.5959 118.703 74.7203 118.3 75.7295H118.305Z" fill="black"/>
<path d="M22.486 79.5744V51.448H20.159V81.9164H39.4133V79.5744H22.486Z" fill="black"/>
<path d="M45.4789 54.6676C45.1029 54.2892 44.6342 54.0972 44.0783 54.0972C43.5224 54.0972 43.0973 54.2837 42.7213 54.6676C42.3453 55.0461 42.1545 55.5178 42.1545 56.0772C42.1545 56.6367 42.3453 57.0645 42.7213 57.443C43.0973 57.8214 43.5497 58.0134 44.0783 58.0134C44.6342 58.0134 45.1029 57.8214 45.4789 57.443C45.855 57.0645 46.0457 56.6093 46.0457 56.0772C46.0457 55.5178 45.8604 55.0461 45.4789 54.6676Z" fill="black"/>
<path d="M42.9066 62.0941V82.6734H45.3318V62.0941H42.9066Z" fill="black"/>
<path d="M73.8236 54.6676C73.4475 54.2892 72.9788 54.0972 72.4229 54.0972C71.8671 54.0972 71.442 54.2837 71.0659 54.6676C70.6899 55.0461 70.4991 55.5178 70.4991 56.0772C70.4991 56.6367 70.6899 57.0645 71.0659 57.443C71.442 57.8214 71.8943 58.0134 72.4229 58.0134C72.9788 58.0134 73.4475 57.8214 73.8236 57.443C74.1996 57.0645 74.3903 56.6093 74.3903 56.0772C74.3903 55.5178 74.205 55.0461 73.8236 54.6676Z" fill="black"/>
<path d="M71.2512 62.0941V82.6734H73.6764V62.0941H71.2512Z" fill="black"/>
<path d="M67.2074 61.8364H64.6515L64.3463 62.5988V62.6042L57.9373 78.099L51.5228 62.5988L51.2176 61.8364H48.6616L50.1276 65.3412L56.4604 80.5452L56.4713 80.5781L56.7928 81.3405V81.346L57.0326 81.9164H58.8419L59.4087 80.5452L66.6952 63.0595L67.2074 61.8364Z" fill="black"/>
<path d="M96.6093 67.0634C96.1788 65.9445 95.5848 64.9792 94.8327 64.1839C94.0806 63.3831 93.1868 62.7633 92.1568 62.3135C91.1268 61.8638 90.0096 61.6389 88.8106 61.6389C87.3882 61.6389 86.102 61.9899 84.9412 62.692C83.7859 63.3941 82.8594 64.2662 82.1618 65.3028L82.0746 62.1051H79.7366V82.6843H82.1182V70.0746C82.1182 69.23 82.298 68.4347 82.6632 67.6942C83.0229 66.9483 83.497 66.301 84.0856 65.7526C84.6687 65.2041 85.3554 64.7762 86.1347 64.4691C86.9141 64.1619 87.7261 64.0029 88.5599 64.0029C89.3937 64.0029 90.233 64.1619 90.9851 64.4855C91.7372 64.8092 92.4021 65.2534 92.9688 65.8129C93.5411 66.3778 93.9934 67.036 94.3259 67.7929C94.6583 68.5498 94.8272 69.3671 94.8272 70.2392V82.6788H97.2524V70.7273C97.2524 69.4109 97.0344 68.1878 96.6039 67.0689L96.6093 67.0634Z" fill="black"/>
</svg>
