<svg width="151" height="730" viewBox="0 0 151 730" fill="none" xmlns="http://www.w3.org/2000/svg">
<g opacity="0.25" clip-path="url(#clip0_2725_641)">
<path d="M75.9878 729.867L0 657.286V730L75.9878 729.867Z" fill="#8D7F59"/>
<path d="M76.2671 292.891L0.279297 220.311V293.025L76.2671 292.891Z" fill="#8D7F59"/>
<path d="M76.2671 74.4333L0.279297 1.85254V74.5668L76.2671 74.4333Z" fill="#8D7F59"/>
<path d="M76.6841 147.549L0.696289 220.129V147.415L76.6841 147.549Z" fill="#8D7F59"/>
<path d="M152.705 73.5202L76.7168 146.101V73.3867L152.705 73.5202Z" fill="#8D7F59"/>
<path d="M152.387 656.81L76.3994 584.234V656.943L152.387 656.81Z" fill="#8D7F59"/>
<path d="M76.9752 583.376L0.987305 510.795V583.509L76.9752 583.376Z" fill="#8D7F59"/>
<path d="M151.592 655.433L77.0576 729.428H151.729L151.592 655.433Z" fill="#8D7F59"/>
<path d="M0.548828 364.421L76.5367 437.001V364.287L0.548828 364.421Z" fill="#8D7F59"/>
<path d="M74.7432 219.12L150.726 291.696V218.981L74.7432 219.12Z" fill="#8D7F59"/>
<path d="M150.309 437.867L226.296 510.448V437.733L150.309 437.867Z" fill="#8D7F59"/>
<path d="M76.2347 510.565L150.764 436.574H76.0977L76.2347 510.565Z" fill="#8D7F59"/>
<path d="M225.085 583.461L150.556 657.457H225.227L225.085 583.461Z" fill="#8D7F59"/>
<path d="M151.691 510.276L77.1562 584.272H151.828L151.691 510.276Z" fill="#8D7F59"/>
<path d="M151.175 0L76.6455 73.9959H151.312L151.175 0Z" fill="#8D7F59"/>
<path d="M151.175 289.912L76.6455 363.908H151.312L151.175 289.912Z" fill="#8D7F59"/>
<path d="M225.085 219.152L150.556 293.148H225.227L225.085 219.152Z" fill="#8D7F59"/>
<rect width="150" height="677" transform="matrix(-1 0 0 1 150 0)" fill="url(#paint0_linear_2725_641)"/>
</g>
<defs>
<linearGradient id="paint0_linear_2725_641" x1="75.974" y1="565.543" x2="75.974" y2="198.146" gradientUnits="userSpaceOnUse">
<stop stop-color="#EAE8E1" stop-opacity="0"/>
<stop offset="1" stop-color="#EAE8E1"/>
</linearGradient>
<clipPath id="clip0_2725_641">
<rect width="151" height="730" fill="white"/>
</clipPath>
</defs>
</svg>
