<svg width="240" height="68" viewBox="0 0 240 68" fill="none" xmlns="http://www.w3.org/2000/svg">
<path d="M69.1107 4.80273L71.5277 10.9822H70.6157L69.943 9.12377H67.3321L66.6367 10.9822H65.793L68.1986 4.80273H69.1107ZM69.6808 8.4283L68.6547 5.54381H68.6433L67.5943 8.4283H69.6922H69.6808Z" fill="#8D7F59"/>
<path d="M80.0239 4.80273L81.9735 10.0017L83.9345 4.80273H85.0632V10.9822H84.2879V5.84024H84.2651L82.3383 10.9822H81.6314L79.7047 5.84024H79.6932V10.9822H78.918V4.80273H80.0467H80.0239Z" fill="#8D7F59"/>
<path d="M92.8519 4.80273V5.49821H89.4088V7.4592H92.6239V8.15467H89.4088V10.2981H92.8861V10.9936H88.5879V4.81414H92.8519V4.80273Z" fill="#8D7F59"/>
<path d="M97.184 4.80273L99.1336 10.0017L101.095 4.80273H102.223V10.9822H101.448V5.84024H101.425L99.4985 10.9822H98.7916L96.8648 5.84024H96.8534V10.9822H96.0781V4.80273H97.2068H97.184Z" fill="#8D7F59"/>
<path d="M107.983 4.79395C108.119 4.79395 108.256 4.79395 108.416 4.79395C108.564 4.79395 108.724 4.79395 108.872 4.81675C109.02 4.82815 109.157 4.85095 109.294 4.88515C109.419 4.91936 109.533 4.95356 109.624 5.01057C109.83 5.13598 110.001 5.2956 110.137 5.51222C110.274 5.72884 110.354 5.99107 110.354 6.2989C110.354 6.62953 110.274 6.91456 110.115 7.15398C109.955 7.39341 109.727 7.57583 109.431 7.68984V7.71264C109.807 7.79245 110.103 7.96347 110.309 8.23709C110.514 8.49932 110.616 8.82995 110.616 9.20619C110.616 9.43422 110.571 9.65084 110.491 9.86746C110.411 10.0841 110.286 10.2665 110.137 10.4375C109.978 10.5971 109.784 10.7339 109.545 10.8366C109.317 10.9392 109.043 10.9848 108.735 10.9848H105.748V4.80535H107.994L107.983 4.79395ZM108.211 7.45041C108.678 7.45041 109.009 7.37061 109.214 7.19959C109.419 7.03997 109.522 6.78915 109.522 6.45851C109.522 6.24189 109.488 6.07087 109.419 5.93406C109.351 5.80865 109.248 5.70604 109.134 5.63763C109.009 5.56922 108.872 5.52362 108.712 5.50082C108.553 5.47801 108.382 5.46661 108.211 5.46661H106.569V7.42761H108.211V7.45041ZM108.621 10.2779C108.986 10.2779 109.271 10.1753 109.476 9.98147C109.681 9.78765 109.784 9.51402 109.784 9.17199C109.784 8.96677 109.75 8.80715 109.67 8.67034C109.59 8.53352 109.499 8.43091 109.374 8.35111C109.248 8.2713 109.111 8.21429 108.94 8.18009C108.781 8.14588 108.61 8.13448 108.439 8.13448H106.558V10.2779H108.621Z" fill="#8D7F59"/>
<path d="M118.112 4.80273V5.49821H114.669V7.4592H117.884V8.15467H114.669V10.2981H118.146V10.9936H113.848V4.81414H118.112V4.80273Z" fill="#8D7F59"/>
<path d="M124.208 4.80273C124.801 4.80273 125.257 4.95095 125.588 5.23598C125.919 5.52101 126.09 5.92005 126.09 6.4217C126.09 6.79794 125.998 7.12857 125.839 7.4136C125.668 7.69863 125.394 7.89245 125.018 7.99506C125.2 8.05206 125.337 8.10907 125.451 8.18888C125.565 8.26869 125.656 8.3713 125.725 8.47391C125.793 8.58792 125.839 8.71333 125.873 8.85014C125.907 8.98696 125.93 9.13517 125.941 9.28339C125.953 9.4316 125.964 9.59122 125.964 9.73943C125.964 9.89905 125.987 10.0473 126.01 10.1955C126.033 10.3437 126.067 10.4919 126.112 10.6287C126.158 10.7655 126.226 10.8796 126.306 10.9822H125.383C125.326 10.9138 125.292 10.8339 125.269 10.7199C125.246 10.6059 125.234 10.4919 125.234 10.3551C125.234 10.2183 125.234 10.0701 125.223 9.92185C125.223 9.76224 125.2 9.61402 125.166 9.46581C125.143 9.31759 125.109 9.16938 125.075 9.04396C125.041 8.90715 124.984 8.79314 124.915 8.69053C124.835 8.58792 124.744 8.50811 124.619 8.4511C124.493 8.3941 124.334 8.35989 124.14 8.35989H122.133V11.005H121.312V4.82554H124.22L124.208 4.80273ZM124.379 7.60742C124.55 7.58462 124.71 7.52761 124.835 7.4364C124.961 7.35659 125.075 7.24258 125.143 7.09437C125.223 6.95755 125.257 6.77513 125.257 6.54711C125.257 6.23928 125.166 5.97705 124.995 5.78323C124.824 5.58941 124.539 5.4868 124.151 5.4868H122.111V7.64162H123.821C124.015 7.64162 124.197 7.63022 124.368 7.59602L124.379 7.60742Z" fill="#8D7F59"/>
<path d="M133.804 6.66808C133.929 6.28044 134.111 5.9384 134.362 5.63057C134.613 5.33414 134.921 5.09472 135.286 4.9123C135.65 4.72988 136.084 4.63867 136.574 4.63867C137.064 4.63867 137.497 4.72988 137.862 4.9123C138.227 5.09472 138.535 5.33414 138.786 5.63057C139.037 5.927 139.219 6.28044 139.344 6.66808C139.47 7.05572 139.527 7.46616 139.527 7.888C139.527 8.30984 139.47 8.72028 139.344 9.10792C139.219 9.49556 139.037 9.8376 138.786 10.1454C138.535 10.4419 138.227 10.6813 137.862 10.8637C137.497 11.0347 137.064 11.1259 136.574 11.1259C136.084 11.1259 135.65 11.0347 135.286 10.8637C134.921 10.6927 134.602 10.4533 134.362 10.1454C134.111 9.849 133.929 9.49556 133.804 9.10792C133.678 8.72028 133.621 8.30984 133.621 7.888C133.621 7.46616 133.689 7.05572 133.804 6.66808ZM134.567 8.81149C134.647 9.11933 134.773 9.39295 134.944 9.63238C135.115 9.8718 135.343 10.0656 135.616 10.2138C135.89 10.3621 136.209 10.4305 136.585 10.4305C136.962 10.4305 137.281 10.3621 137.554 10.2138C137.828 10.0656 138.045 9.8718 138.227 9.63238C138.398 9.39295 138.524 9.11933 138.603 8.81149C138.683 8.51506 138.729 8.19583 138.729 7.888C138.729 7.58017 138.695 7.27234 138.603 6.96451C138.524 6.65668 138.398 6.38305 138.227 6.14362C138.056 5.9042 137.828 5.71038 137.554 5.56217C137.281 5.41395 136.962 5.34554 136.585 5.34554C136.209 5.34554 135.89 5.41395 135.616 5.56217C135.343 5.71038 135.126 5.9042 134.944 6.14362C134.773 6.38305 134.647 6.65668 134.567 6.96451C134.488 7.27234 134.442 7.58017 134.442 7.888C134.442 8.19583 134.488 8.50366 134.567 8.81149Z" fill="#8D7F59"/>
<path d="M146.774 4.80273V5.49821H143.536V7.4592H146.375V8.15467H143.536V10.9822H142.715V4.80273H146.774Z" fill="#8D7F59"/>
<path d="M72.7404 18.9121V20.4513H67.4845V21.8422H70.2549V23.3814H67.4845V25.0345H72.9114V26.5737H65.9453V18.9235H72.729L72.7404 18.9121Z" fill="#8D7F59"/>
<path d="M78.5807 18.9121H80.6215L84.3725 26.5623H82.6281L81.8642 24.9547H77.395L76.6311 26.5623H74.8867L78.5921 18.9121H78.5807ZM78.136 23.4156H81.0889L79.6182 20.4057L78.1474 23.4156H78.136Z" fill="#8D7F59"/>
<path d="M86.728 24.0962C88.062 24.9513 89.3275 25.2591 90.6728 25.2591C91.4367 25.2591 92.7364 25.0653 92.7364 24.2102C92.7364 23.5946 92.0524 23.4235 91.5849 23.4121L89.2933 23.3437C87.4235 23.2981 86.5 22.2036 86.5 21.0293C86.5 19.855 87.3437 18.6807 90.0914 18.6807C92.098 18.6807 93.3293 19.4445 93.7854 19.684L93.0899 21.0407C92.4856 20.7329 91.3797 20.2198 89.852 20.2198C89.0425 20.2198 88.0392 20.4022 88.0392 21.0749C88.0392 21.6678 88.8829 21.816 89.3959 21.816L91.3911 21.8844C93.1469 21.93 94.2642 22.6825 94.2642 24.29C94.2642 25.6582 93.1811 26.7983 90.6614 26.7983C88.5978 26.7983 87.0701 26.2852 86.0098 25.4643L86.7166 24.0962H86.728Z" fill="#8D7F59"/>
<path d="M99.692 18.9121H101.733L105.484 26.5623H103.739L102.976 24.9547H98.5063L97.7424 26.5623H95.998L99.7034 18.9121H99.692ZM99.2474 23.4156H102.2L100.73 20.4057L99.2588 23.4156H99.2474Z" fill="#8D7F59"/>
<path d="M113.754 24.0962C115.088 24.9513 116.353 25.2591 117.699 25.2591C118.462 25.2591 119.762 25.0653 119.762 24.2102C119.762 23.5946 119.078 23.4235 118.611 23.4121L116.319 23.3437C114.449 23.2981 113.526 22.2036 113.526 21.0293C113.526 19.855 114.369 18.6807 117.117 18.6807C119.124 18.6807 120.355 19.4445 120.811 19.684L120.116 21.0407C119.511 20.7329 118.405 20.2198 116.878 20.2198C116.068 20.2198 115.065 20.4022 115.065 21.0749C115.065 21.6678 115.909 21.816 116.422 21.816L118.417 21.8844C120.173 21.93 121.301 22.6825 121.301 24.29C121.301 25.6582 120.218 26.7983 117.699 26.7983C115.635 26.7983 114.107 26.2852 113.047 25.4643L113.754 24.0962Z" fill="#8D7F59"/>
<path d="M126.721 18.9121H128.762L132.513 26.5623H130.769L130.005 24.9547H125.536L124.772 26.5623H123.027L126.733 18.9121H126.721ZM126.277 23.4156H129.23L127.759 20.4057L126.288 23.4156H126.277Z" fill="#8D7F59"/>
<path d="M136.383 18.9121V25.0231H140.784V26.5623H134.855V18.9121H136.395H136.383Z" fill="#8D7F59"/>
<path d="M150.918 18.9121V20.4513H145.662V21.8422H148.433V23.3814H145.662V25.0345H151.089V26.5737H144.123V18.9235H150.918V18.9121Z" fill="#8D7F59"/>
<path d="M156.561 18.9131V21.809H160.665V18.9131H162.204V26.5633H160.665V23.3481H156.561V26.5633H155.021V18.9131H156.561Z" fill="#8D7F59"/>
<path d="M174.862 18.9121H176.903L180.654 26.5623H178.909L178.145 24.9547H173.676L172.912 26.5623H171.168L174.873 18.9121H174.862ZM174.417 23.4156H177.37L175.899 20.4057L174.429 23.4156H174.417Z" fill="#8D7F59"/>
<path d="M184.516 18.9121V25.0231H188.917V26.5623H182.988V18.9121H184.527H184.516Z" fill="#8D7F59"/>
<path d="M202.142 22.2072H205.586V25.4223C205.255 25.7644 204.149 26.7905 201.778 26.7905C198.939 26.7905 197.229 24.8295 197.229 22.6747C197.229 20.7365 198.733 18.6729 201.789 18.6729C203.83 18.6729 205.027 19.4139 205.437 19.642L204.537 21.1583C204.046 20.8277 203.169 20.2006 201.732 20.2006C199.931 20.2006 198.768 21.3065 198.768 22.6633C198.768 24.1112 199.782 25.2513 201.778 25.2513C202.564 25.2513 203.488 24.9435 204.046 24.5444V23.6096H202.142V22.1958V22.2072Z" fill="#8D7F59"/>
<path d="M211.047 18.9121V23.5638C211.047 24.4759 211.287 25.2626 213.202 25.2626C215.243 25.2626 215.357 24.3961 215.357 23.5638V18.9121H216.896V23.5638C216.896 25.1713 216.132 26.8017 213.191 26.8017C210.534 26.8017 209.52 25.388 209.52 23.5638V18.9121H211.059H211.047Z" fill="#8D7F59"/>
<path d="M226.243 18.9157C227.657 18.9157 229.002 19.4516 229.002 21.1731C229.002 22.6325 228.01 23.1683 227.292 23.4306L229.23 26.5545H227.292L225.354 23.442H222.902V26.5545H221.363V18.9043H226.232L226.243 18.9157ZM222.902 20.4549V21.9142H226.243C226.699 21.9142 227.463 21.8572 227.463 21.1731C227.463 20.4891 226.767 20.4549 226.243 20.4549H222.902Z" fill="#8D7F59"/>
<path d="M236.558 22.2072H240.002V25.4223C239.682 25.7644 238.565 26.7905 236.194 26.7905C233.355 26.7905 231.645 24.8295 231.645 22.6747C231.645 20.7365 233.149 18.6729 236.205 18.6729C238.246 18.6729 239.443 19.4139 239.853 19.642L238.953 21.1583C238.462 20.8277 237.585 20.2006 236.148 20.2006C234.347 20.2006 233.184 21.3065 233.184 22.6633C233.184 24.1112 234.198 25.2513 236.194 25.2513C236.98 25.2513 237.904 24.9435 238.462 24.5444V23.6096H236.558V22.1958V22.2072Z" fill="#8D7F59"/>
<path d="M69.9237 37.3234H73.3668V40.5385C73.0362 40.8806 71.9303 41.9067 69.5588 41.9067C66.7199 41.9067 65.0098 39.9457 65.0098 37.7909C65.0098 35.8527 66.5147 33.7891 69.5702 33.7891C71.611 33.7891 72.8082 34.5301 73.2186 34.7696L72.3179 36.2859C71.8277 35.9667 70.9498 35.3282 69.5132 35.3282C67.7118 35.3282 66.5489 36.4341 66.5489 37.7909C66.5489 39.2388 67.5636 40.3789 69.5588 40.3789C70.3455 40.3789 71.269 40.0711 71.8277 39.6721V38.7372H69.9237V37.3234Z" fill="#8D7F59"/>
<path d="M81.8289 34.0329C83.2427 34.0329 84.588 34.5687 84.588 36.2903C84.588 37.7497 83.5961 38.2855 82.8778 38.5477L84.816 41.6717H82.8778L80.9396 38.5591H78.4884V41.6717H76.9492V34.0215H81.8175L81.8289 34.0329ZM78.4884 35.572V37.0314H81.8289C82.285 37.0314 83.0488 36.9744 83.0488 36.2903C83.0488 35.6062 82.3534 35.572 81.8289 35.572H78.4884Z" fill="#8D7F59"/>
<path d="M87.668 37.8664C87.668 35.723 89.3553 33.8076 92.3652 33.8076C95.3752 33.8076 97.0625 35.7116 97.0625 37.8664C97.0625 40.0212 95.3638 41.9252 92.3652 41.9252C89.3667 41.9252 87.668 40.0098 87.668 37.8664ZM95.5234 37.8664C95.5234 36.5439 94.2692 35.3468 92.3652 35.3468C90.4613 35.3468 89.2071 36.5553 89.2071 37.8664C89.2071 39.1776 90.4613 40.3861 92.3652 40.3861C94.2692 40.3861 95.5234 39.189 95.5234 37.8664Z" fill="#8D7F59"/>
<path d="M102.68 34.0293V38.681C102.68 39.5931 102.92 40.3797 104.835 40.3797C106.876 40.3797 106.99 39.5133 106.99 38.681V34.0293H108.529V38.681C108.529 40.2885 107.765 41.9075 104.824 41.9075C102.167 41.9075 101.152 40.4938 101.152 38.681V34.0293H102.691H102.68Z" fill="#8D7F59"/>
<path d="M117.935 34.0329C119.428 34.0329 120.694 34.6828 120.694 36.4499C120.694 38.2171 119.508 38.9126 117.935 38.9126H114.879V41.6717H113.34V34.0215H117.935V34.0329ZM114.879 37.3848H117.935C118.527 37.3848 119.166 37.3164 119.166 36.4613C119.166 35.6062 118.482 35.572 117.935 35.572H114.879V37.3848Z" fill="#8D7F59"/>
<path fill-rule="evenodd" clip-rule="evenodd" d="M50.6894 65.5566C50.6894 65.5566 49.7317 66.7652 49.4467 67.13C49.4467 67.13 49.0135 66.5143 47.9531 65.8531C47.8619 65.9671 46.9954 67.0616 46.7218 67.415C46.7218 67.415 46.2886 66.788 45.1941 66.1267L46.471 64.4963C46.471 64.4963 47.5085 65.0664 47.9417 65.8189L49.1959 64.2113C49.1959 64.2113 50.2676 64.7928 50.678 65.568L50.6894 65.5566ZM25.0368 33.394C25.3333 33.0291 26.2909 31.8434 26.3822 31.718C27.5223 32.4363 27.9897 33.109 27.9897 33.109C28.2976 32.7213 29.3465 31.4216 29.3465 31.4216C28.9018 30.5779 27.7503 29.9394 27.7503 29.9394L26.3708 31.661C25.9147 30.8401 24.7974 30.2131 24.7974 30.2131L23.3951 31.9688C24.558 32.6985 25.0254 33.3826 25.0254 33.3826L25.0368 33.394ZM40.5652 34.4315L39.5733 35.6742C40.4056 36.1987 40.7362 36.6775 40.7362 36.6775C40.9528 36.4039 41.7053 35.4804 41.7053 35.4804C41.4089 34.9217 40.6678 34.4771 40.5766 34.4315C40.8046 34.1465 41.5343 33.2458 41.5343 33.2458C41.2151 32.6415 40.4056 32.1855 40.4056 32.1855L39.4137 33.4282C40.1776 33.907 40.5196 34.3631 40.5766 34.4315H40.5652ZM56.2304 43.0964C56.0138 43.427 55.7971 43.7348 55.5691 43.9971C55.7857 44.3049 55.9568 44.5557 56.105 44.7609C58.2826 47.8735 60.3804 52.3085 63.7323 53.574C66.4344 54.6001 71.3597 54.7027 76.8209 55.4324C80.5148 55.9341 83.7756 56.812 84.9385 57.097C87.8116 57.7925 90.4795 59.2746 90.4795 59.2746L87.1047 59.4342C84.1518 57.8609 80.2754 56.9602 76.6727 56.4357C73.2637 55.9341 70.1056 55.7745 68.213 55.6946C66.2976 55.6034 63.1053 55.6376 60.6882 53.9731C60.654 53.9503 60.6198 53.9275 60.5856 53.9047C60.483 54.4177 60.1296 55.8087 60.1296 55.8087C60.1296 55.8087 59.1947 56.1621 57.6327 57.8153C55.8883 59.6736 53.9388 62.3187 52.354 62.7748C50.507 63.3106 50.1422 61.2242 50.0168 61.1672C49.9826 61.4636 49.994 62.2617 49.7773 62.8774C49.5835 63.4018 48.4776 64.7016 47.4173 64.5419C46.3 64.3709 46.1974 62.98 46.1974 62.98C46.0377 62.9914 45.5133 65.0436 43.9969 64.7928C42.5262 64.5419 42.7542 62.9914 42.7542 62.9914C42.4806 62.9458 41.2379 64.5305 39.4935 63.8237C37.7149 63.094 38.0113 60.4147 38.0797 59.8219C38.1481 59.2176 38.2508 58.6703 38.285 58.2485C38.3078 58.0319 38.2964 57.6328 38.1253 57.4048C37.9315 57.154 37.4299 57.1198 37.2361 57.1198C35.6513 57.1198 35.3891 57.3364 35.3891 57.3364C35.1724 58.3967 37.4413 59.4342 37.5439 60.8936C37.6123 61.8855 36.1529 63.1282 35.1268 63.4588C33.8727 63.8579 30.3726 62.6607 29.2666 61.2356C28.7764 60.5971 28.6054 60.0613 28.6054 59.343C28.6054 57.724 29.5289 56.2989 30.6348 55.3982C31.5241 54.6799 32.5616 54.1897 33.5079 53.8021C33.4737 53.631 33.4395 53.4714 33.4053 53.3118C33.4053 53.3118 33.4053 53.289 33.4167 53.2662C33.6219 53.0382 33.7701 52.89 33.9297 52.7189C32.5388 53.3232 31.0794 53.4942 30.612 53.5398C25.9489 54.0073 20.3509 52.9014 15.9729 50.8149C10.9564 48.4321 7.67286 45.1828 5.92848 42.0817C3.83067 43.5752 1.80126 45.16 0.0340851 46.6877C0.0340851 46.6877 -0.0343218 46.7333 0.022684 46.6193C0.330515 46.0151 0.946178 45.0004 1.1514 44.8293C1.85827 44.2365 3.47723 42.9139 5.56365 41.3748C5.40403 41.0442 5.25581 40.7135 5.119 40.3829C3.21501 35.5944 3.63685 29.2212 10.717 24.8887C15.9159 21.7078 25.3447 20.8983 34.3744 23.3268C34.1577 23.0075 34.0323 22.7339 34.0095 22.4717C33.8727 21.4 35.8793 18.6865 36.7572 17.6034C35.9363 11.8002 35.1724 9.98741 35.1724 9.98741L35.9819 7.50196C37.2361 11.6178 38.0455 18.0708 38.57 24.7063C39.2085 24.9571 39.8355 25.2194 40.4512 25.5044C41.0782 25.7894 41.7167 26.1314 42.3438 26.5077C42.3096 26.063 42.264 25.6184 42.2298 25.1852C42.1272 25.0711 42.0245 24.9685 41.9333 24.8773C39.8355 22.5971 38.4902 21.4798 38.456 20.7843C38.3876 19.3022 40.3372 16.3379 41.1011 15.3118C40.0977 8.20883 39.2769 6.16802 39.2769 6.16802L40.0863 3.68257C41.4089 8.11762 42.3666 15.7108 43.0278 23.0417C43.6891 23.7144 44.4644 24.5011 45.3765 25.3904C45.8781 25.8692 46.2886 26.3709 46.6534 26.8611C46.5508 25.5728 46.4482 24.3529 46.3456 23.1786C44.0083 20.5791 42.834 19.3592 42.7428 18.2418C42.6174 16.7825 44.4644 13.7156 45.1941 12.6895C44.1338 4.85689 43.2445 2.48545 43.2445 2.48545L44.054 0C45.4563 4.70868 46.5052 13.2139 47.2691 21.1149C47.8619 21.799 48.5574 22.5857 49.3669 23.4978C53.3117 27.9328 56.4584 31.8206 57.4275 34.7393C57.7353 35.6628 58.5334 38.1597 57.2565 41.0898C57.2451 41.124 57.2223 41.1582 57.2109 41.1924C58.6816 43.1762 59.9814 45.103 61.0417 46.8131C62.1476 48.5917 63.0141 49.5608 64.063 50.5299C64.6558 51.0886 66.2406 52.3085 68.2016 52.7303C70.9721 53.3232 75.4071 53.631 77.3339 53.8933C79.6598 54.2125 84.5508 55.0676 87.4581 55.9227C90.6505 56.8576 94.5041 59.0466 94.5041 59.0466L91.2319 59.1036C88.7237 57.0286 83.2625 55.7517 77.2085 54.9422C75.7036 54.7369 74.1758 54.5659 72.6367 54.4063C70.1284 54.1555 67.3807 53.9959 65.4311 53.3346C62.8659 52.4567 61.3039 50.6895 59.9586 48.5803C58.7728 46.7333 57.5187 44.875 56.2076 43.0508L56.2304 43.0964ZM46.0149 19.6898C45.7641 17.2613 45.5133 15.1407 45.2739 13.3051L44.9546 15.0381C44.9546 15.0381 43.7119 15.973 43.6891 16.2352C43.6663 16.4519 43.7233 16.5887 43.7575 16.6685C43.8943 16.9991 44.3732 17.7288 46.0263 19.6784L46.0149 19.6898ZM47.5883 24.5923C47.7821 26.7927 47.9303 28.8905 48.0444 30.8401C51.1341 33.6562 54.0642 37.0652 56.561 40.3601C56.8118 38.5473 56.3444 36.6889 55.5463 35.127C53.7221 31.5584 49.2643 26.5191 49.2643 26.5191C48.66 25.8122 48.1014 25.1738 47.5883 24.5923ZM38.285 35.5944C38.2052 33.8044 38.1139 32.1285 38.0113 30.5779C36.21 29.7342 33.4395 28.6283 30.6804 28.3775C30.8628 28.9475 30.9996 29.5404 31.0566 30.1333C31.1478 31.205 30.9198 32.1627 30.612 33.0406C30.6462 33.0862 30.5664 33.4966 30.5436 33.6106C30.5094 33.85 30.0419 36.2215 31.0566 37.6808C31.2733 38 31.5925 38.2509 32.0029 38.3991C32.0371 38.3991 32.0599 38.4219 32.0941 38.4333C32.2994 38.5017 32.5274 38.5359 32.7782 38.5473C34.3972 38.6385 35.1724 36.7573 35.2979 36.0961C35.4233 35.4234 34.9444 33.9412 34.4314 33.3484C34.4314 33.3484 34.7962 36.8941 32.9948 36.8827C32.1511 36.8827 31.7179 35.8908 31.5583 34.9559C31.3987 34.021 31.5355 33.0862 31.5355 33.0862C31.5355 33.0862 31.9003 29.9964 33.5193 30.0648C35.0584 30.1333 36.1871 33.0063 35.7197 36.2329C35.6057 37.0424 35.4461 37.7492 35.2409 38.3421C36.5406 37.6124 37.2703 36.1075 38.2964 35.583L38.285 35.5944ZM29.7683 37.2134C29.8823 37.2932 29.9963 37.373 30.1103 37.4414C29.9279 36.1417 30.1103 34.6025 30.3612 33.7018C29.8595 34.9445 29.3237 35.9706 29.6087 36.8029C29.6543 36.9283 29.6999 37.0652 29.7797 37.202L29.7683 37.2134ZM33.5535 34.1693L33.8043 32.8467C33.6561 32.6415 33.4395 32.4363 33.1886 32.4363C32.7098 32.4249 32.1283 33.0405 32.0599 33.6334C32.3222 34.3517 32.7326 34.6823 33.0518 34.7165C33.5307 34.7621 33.7473 34.3859 33.7473 34.3859C33.6789 34.2605 33.5535 34.1807 33.5535 34.1807V34.1693ZM28.6738 28.3433C24.729 28.5599 21.0806 30.2701 20.4422 33.4852C21.0008 33.3826 21.5367 33.3256 22.0497 33.3256C23.7941 33.3142 25.7551 34.4657 26.8496 35.1498C27.6021 35.6172 28.2519 36.1075 28.8904 36.5749C28.9702 35.1156 29.6429 34.2719 29.9393 33.1204C30.1559 32.2539 30.0761 30.5551 28.6738 28.3433ZM20.3851 35.3208C20.9324 41.1582 26.2567 43.4156 30.2814 43.9971C33.0062 44.3847 34.1349 44.0427 34.8532 43.8032C37.0422 43.085 38.1367 41.4318 38.4902 40.6793C38.4332 38.9577 38.3762 37.3274 38.2964 35.7882L37.8403 37.5668C37.122 37.8746 36.2556 39.0262 36.0047 39.334C35.5145 39.9382 34.8532 40.6223 33.9411 40.9415C34.0437 41.0214 34.1577 41.0898 34.2718 41.1696L34.1463 43.5182C34.1463 43.5182 31.4215 42.3553 29.8937 40.0637C27.1346 38.4333 24.2045 35.6058 21.6393 35.3892C21.3314 35.3664 20.9096 35.3208 20.3965 35.298L20.3851 35.3208ZM38.912 29.7798C39.6189 30.0762 40.3144 30.3955 40.987 30.7375C40.3486 29.9508 39.5391 29.0387 38.8208 28.2521C38.855 28.7651 38.8778 29.2782 38.912 29.7912V29.7798ZM45.3651 38.1027C45.6843 37.3958 45.9579 36.7573 46.2316 36.1417C45.3879 35.4006 44.6012 34.7621 43.8601 34.1807C43.9855 36.3355 44.0653 38.3193 44.1224 40.0637C44.168 40.4741 44.2136 41.1354 44.2478 42.1615C44.2592 42.6745 44.2478 43.2104 44.2022 43.7234C44.8292 42.4693 45.0116 42.4237 45.0116 42.4237C45.0687 42.3895 45.1941 42.3553 45.3537 42.3325C44.909 42.0817 44.6468 41.3064 44.681 40.7933C44.681 39.8014 44.9888 38.9806 45.3879 38.1027H45.3651ZM44.0882 45.1714C44.0882 45.1714 44.8406 44.7495 45.0572 44.6583C46.3 44.0655 46.6762 43.8602 46.6762 43.8602L46.7218 43.826C46.2886 43.712 45.0572 43.7234 44.795 43.7576C44.5214 43.7918 44.2136 43.8488 44.2136 43.8488C44.2136 43.8488 44.1908 43.8488 44.1794 43.8602C44.054 45.1942 43.8031 46.3001 43.8031 46.3001C45.3309 45.8783 46.6648 45.331 47.7365 44.7951C47.7365 44.1909 47.7137 43.6094 47.6909 43.1078C47.5769 43.2902 47.4173 43.5296 47.1779 43.8374C47.0981 43.9401 46.642 44.5557 46.2316 44.7609C46.1518 44.7951 45.3081 44.9091 44.5784 45.0802C44.4188 45.1144 44.1338 45.1828 44.0996 45.1714H44.0882ZM45.7869 51.3622C46.7218 50.2335 47.4515 49.1618 47.6111 47.7936C45.7983 49.082 43.8259 50.4615 42.6402 51.8525C42.0245 52.5821 41.6483 53.2662 41.4203 53.8819C41.7965 54.0757 42.207 54.1897 42.6516 54.2353C43.6435 53.4486 45.1143 52.1717 45.7869 51.3622ZM38.969 31.0339C39.1971 35.7084 39.2769 40.1093 39.2997 43.4726C39.8697 42.9254 40.2232 42.5605 40.2232 42.5605C38.9462 42.0247 40.0407 36.5977 41.3747 36.5977C42.8112 36.5977 42.3666 39.9725 42.3666 39.9725C43.0278 38.9007 43.1305 37.1678 42.9936 35.6172C42.9024 34.6823 42.5946 33.7132 42.3438 33.0634C41.0896 32.1969 39.9837 31.547 38.9804 31.0339H38.969ZM41.9333 39.8014C41.8763 39.0148 41.3633 38.6043 41.0782 38.6841C40.5538 38.7525 40.1548 40.1891 40.1548 40.1891C40.2802 40.7819 40.8274 41.1696 41.3633 40.9986C41.7737 40.7477 41.9561 39.9725 41.9447 39.8128L41.9333 39.8014ZM38.5814 50.8264C38.3192 51.3508 37.9087 51.9095 37.3729 52.3883C37.7149 52.4681 38.2964 52.7303 38.8322 53.0268C38.7524 52.6733 38.684 52.2971 38.6498 51.8867C38.6156 51.556 38.5928 51.214 38.5814 50.8264ZM40.2118 52.833C40.4056 53.118 40.6336 53.3574 40.8844 53.5512C41.9447 50.4501 44.9546 48.0331 44.9546 48.0331C44.9546 48.0331 42.3894 48.7855 41.6825 48.968C41.1239 49.1162 40.1205 49.367 39.7443 49.6292C39.6873 49.6634 39.4821 49.8801 39.4593 49.8687C39.4251 49.8459 39.4479 49.7204 39.4593 49.6862C39.7101 48.4891 40.3258 47.0754 40.6222 46.893C41.7965 46.1747 43.4953 45.3196 43.4953 45.3196C43.5409 45.0346 43.4953 43.5296 43.4725 43.199C43.4269 42.2071 43.3699 41.2494 43.3129 40.3031C43.2331 40.7933 43.1191 41.238 42.9822 41.5572C42.6174 42.3781 42.0359 42.7315 42.0359 42.7315C41.3519 43.9743 40.189 44.7951 39.2883 45.6958C39.2883 46.6193 39.2883 47.6796 39.3111 48.5461C39.3567 50.872 39.5961 51.9095 40.2232 52.8216L40.2118 52.833ZM41.1923 56.2305C41.3177 56.8348 41.5799 57.3364 41.9105 57.6898C43.2445 59.0922 46.1062 58.2371 48.4092 56.8918C48.2496 56.5383 48.1356 56.3331 48.1356 56.3331L48.5118 54.2923C47.8847 54.8054 47.1893 55.307 46.5166 55.6718C45.9123 56.9716 45.5817 57.5302 45.4791 57.5302C45.3423 57.5302 45.6729 56.3901 45.7869 56.0253C45.4449 56.1621 42.9366 56.926 41.1923 56.2305ZM49.5949 56.1279C50.7008 55.3412 51.6813 54.4747 52.24 53.9503C51.6585 53.7906 51.2709 52.9812 51.3165 51.9893C51.3165 51.9323 51.3165 51.7954 51.2709 51.784C51.2025 51.7726 51.0771 51.8639 50.8376 52.1375C50.7578 52.2287 49.8001 53.232 48.603 54.2125C48.945 54.6685 49.2643 55.2842 49.5835 56.1279H49.5949ZM52.8556 51.6586C53.9958 51.5332 54.9193 50.1879 54.9193 50.1879C54.9193 50.1879 54.372 48.5005 52.3882 48.2953C49.5379 48.0103 47.5199 53.118 47.5199 53.118C48.6828 52.3541 50.564 50.4729 50.8832 50.1993C51.0543 50.0511 51.6699 49.5608 51.8523 49.6406C51.9207 49.6748 51.9321 50.0055 51.9093 50.1993C51.8637 50.6097 51.9093 51.7726 52.8556 51.67V51.6586ZM52.924 46.0265C53.1293 45.7756 53.4827 45.388 53.8931 44.932C52.3312 42.6745 50.4956 40.2689 48.3522 38.1255C48.4434 40.9872 48.4548 42.7315 48.4548 42.7315C48.4548 42.7315 48.489 43.4612 48.4548 44.4189C49.8799 43.655 50.7122 43.0052 50.8034 42.9367C51.2025 42.6175 51.7725 42.2071 51.8295 42.2185L51.4989 44.5329C50.9402 45.3652 49.6405 46.3457 48.1584 47.3946C47.7935 49.2074 47.1893 50.6553 46.5736 51.67C45.9807 52.6619 44.3846 53.6652 43.1419 54.2923C44.3048 54.3151 45.5475 53.9845 46.5736 53.5968C46.5736 53.5968 49.2187 46.3115 52.3654 46.0493C52.5478 46.0379 52.7302 46.0379 52.9126 46.0493L52.924 46.0265ZM47.3375 37.145C47.3375 37.145 47.3375 37.145 47.3261 37.1336C46.984 36.8257 46.6534 36.5293 46.3342 36.2443C46.2658 36.4837 46.1974 36.7003 46.1632 36.7915C46.0149 37.2248 45.7755 37.8062 45.5931 38.3421C45.4221 38.8209 45.2967 39.2428 45.2625 39.6988C45.2625 40.1663 45.4107 40.5767 45.6387 40.8275C45.8781 41.0898 46.243 41.0442 46.3 40.9758C46.3228 40.9301 46.3342 40.8959 46.3684 40.8047C46.3798 40.7591 46.87 39.505 46.87 39.5962C46.87 40.0523 46.7332 40.8389 46.5166 41.3976C46.357 41.808 46.1404 42.1273 45.9123 42.2983C46.5166 42.2983 47.2349 42.3553 47.5883 42.4921C47.5997 42.4921 47.6111 42.5035 47.6339 42.5149C47.5997 41.865 47.5199 40.4855 47.5199 40.4855C47.4629 39.3454 47.3945 38.2395 47.3375 37.1564V37.145ZM47.2007 34.7963C47.1437 33.9298 47.0867 33.0862 47.041 32.2653C45.8895 31.148 44.7152 30.1105 43.5181 29.1756C43.5979 30.2473 43.6663 31.2848 43.7347 32.2995C44.6126 32.8467 45.4563 33.4396 46.2544 34.0438C46.585 34.2947 46.9042 34.5455 47.2121 34.7963H47.2007ZM41.8877 21.8902C41.6483 19.5986 41.4089 17.6148 41.1695 15.916L40.8616 17.535C40.8616 17.535 39.4821 18.7207 39.3795 18.9715C39.3795 18.9715 39.7899 19.6784 41.8763 21.8902H41.8877ZM43.3585 27.1576C44.0996 27.6364 44.8292 28.1723 45.5589 28.7423C44.8976 27.9556 44.0425 27.0777 43.2901 26.3025C43.3129 26.5875 43.3357 26.8725 43.3585 27.1576ZM40.1662 26.8155C40.4398 27.1005 40.7134 27.397 41.0098 27.7162C41.6825 28.4231 42.207 29.13 42.606 29.8254C42.5718 29.3466 42.5262 28.8677 42.492 28.4003C41.7281 27.8302 40.9528 27.3058 40.1662 26.8155ZM35.0926 20.9097C35.0926 20.9097 35.6741 21.7762 37.4641 23.8398C37.2589 21.6736 37.0422 19.8266 36.8256 18.2418L36.4494 19.6898C36.4494 19.6898 35.1838 20.6589 35.0812 20.9097H35.0926ZM7.57025 39.9496C10.7854 37.715 14.6504 35.355 18.0935 34.1465C18.5268 30.9883 21.0236 28.2179 26.6444 27.739C27.1574 27.6934 27.6819 27.6706 28.1949 27.6592C28.1265 27.568 28.0581 27.4768 27.9897 27.3856L28.7194 24.6265C28.7194 24.6265 29.7455 25.9718 30.4524 27.7276C33.0518 27.9214 35.5715 28.5257 37.9543 29.4264C37.8973 28.6283 37.8403 27.8644 37.7833 27.1348C37.6693 27.0207 37.5781 26.9067 37.4869 26.8155C36.609 25.8578 35.8679 25.1053 35.3093 24.4783C32.858 23.6118 28.5712 22.4489 23.9879 22.4603C19.1538 22.4831 14.1601 23.5662 10.7398 26.3709C8.34553 28.3433 6.66956 31.1252 6.61255 35.0928C6.58975 36.8485 6.94319 38.4675 7.58165 39.961L7.57025 39.9496ZM33.4851 51.2596C36.6318 50.3931 37.1106 48.8768 37.3729 47.9761C37.6921 46.8815 37.8175 45.9239 38.0113 45.2626C38.1482 44.7837 38.3876 44.4417 38.5814 44.2137C38.5586 43.1306 38.5244 42.0817 38.4902 41.067C37.9201 42.7543 36.6318 44.2251 35.1496 44.9776C33.2913 45.9239 30.8058 46.1861 28.3888 45.73C27.1346 45.4906 23.3723 44.6925 20.636 41.6484C19.1082 39.9496 18.1277 37.715 18.0365 35.5374C17.5349 35.64 17.0104 35.7882 16.4632 35.9934C13.9777 36.9739 10.945 38.6955 7.93509 40.7135C11.059 46.7447 19.074 50.3589 25.4245 51.3964C29.8481 52.1147 32.2994 51.5902 33.4851 51.2596ZM34.363 53.4714C34.7164 53.3346 35.0584 53.1978 35.3435 53.0724C37.2133 52.2287 38.1482 51.0658 38.5814 50.3019C38.57 49.5608 38.5814 48.7171 38.5928 47.7138C38.5928 47.235 38.5928 46.8815 38.5928 46.5623C38.2964 47.007 38.1139 47.5656 37.9543 48.0673C37.6807 48.8768 37.4413 49.709 36.951 50.4501C36.3126 51.3964 35.5601 51.8411 34.7278 52.3313C34.5568 52.4339 34.3744 52.5251 34.1919 52.6163C34.2604 52.9014 34.3174 53.1864 34.363 53.4828V53.4714ZM31.4785 60.2437C32.9492 58.8414 33.4167 57.8381 33.6219 56.1849C33.6789 55.6832 33.6789 55.1018 33.6219 54.5317C32.6756 54.9536 31.8433 55.3526 31.3645 55.8429C30.5778 56.6409 30.3726 57.9749 30.5436 58.6931C30.6918 59.3088 30.9996 59.7991 31.4785 60.2551V60.2437ZM49.7089 60.7454C49.5835 59.9131 49.3099 59.058 49.0363 58.3283C47.2805 59.5482 45.2169 60.5173 43.4155 60.6313C40.417 60.8138 40.0065 58.2485 40.3828 55.7631C40.0179 55.4666 39.6987 55.079 39.4251 54.6001C39.2541 54.7027 39.0374 54.8282 38.7638 54.965C38.627 55.0334 37.8517 55.4552 37.3387 55.4552C37.2475 55.4552 36.3012 55.1474 35.4575 54.965C35.2751 54.9194 34.9444 54.851 34.9102 54.8282C34.8874 54.8054 35.9021 54.7711 36.1643 54.7711C37.7377 54.7711 38.2394 54.7369 38.2394 54.7369H38.2964C37.8973 54.3835 36.609 53.7792 36.324 53.688C36.1301 53.631 35.9249 53.5626 35.7881 53.5284C35.5943 53.6424 35.3891 53.745 35.1953 53.8363C34.9444 53.9503 34.6936 54.0643 34.4428 54.1783C34.5112 55.079 34.4428 55.9455 34.2604 56.6751C33.8385 58.2599 32.9036 59.3658 31.5469 60.3121C33.2799 61.9311 35.7653 62.3529 35.7653 62.3529C36.2556 61.6574 34.9444 60.4261 34.2604 59.7079C33.8841 59.3088 33.8043 58.9554 33.8613 58.5905C33.9867 57.6784 34.6708 56.983 35.6285 56.3901C36.6204 55.7859 38.9234 55.5122 39.6531 56.0139C40.1434 56.3445 39.7329 57.4048 39.5277 59.0352C39.3453 60.4717 40.0521 61.475 40.8388 61.8741C41.9219 62.4327 42.7542 61.9767 43.3015 61.4864C43.8373 60.9962 44.0768 60.9392 44.0768 60.9392C44.1452 60.9848 43.9171 61.2926 43.7689 61.5206C43.6207 61.7373 43.6321 61.8627 43.6321 61.8627C43.6321 61.8627 43.6321 62.5695 44.5556 62.7292C45.8781 62.9572 46.3114 61.6688 46.4368 61.4408C46.585 61.1672 46.8016 60.734 46.984 60.734C47.0068 60.8366 46.9612 61.019 46.927 61.1786C46.8472 61.6004 46.9726 61.8741 47.0981 62.0109C47.2919 62.2275 47.5997 62.3643 47.9417 62.3301C48.6372 62.2503 49.5949 61.4294 49.7203 60.7568L49.7089 60.7454ZM58.1914 51.3508C58.2028 51.5674 58.1914 51.8981 58.123 52.3997C58.066 52.8102 57.7467 54.794 56.7662 55.649C55.8883 56.4243 53.2319 55.7631 52.924 56.6181C52.924 56.6181 53.9388 57.6898 56.2532 57.2452C56.5838 57.1768 56.732 57.0058 57.2223 56.5269C57.8607 55.9113 58.7044 55.0676 59.4341 54.4519C59.8674 54.0871 60.2322 53.8933 60.426 53.8021C59.6621 53.2206 58.9325 52.3769 58.18 51.3508H58.1914ZM54.1782 45.3538C53.8817 45.616 53.5511 45.9011 53.2889 46.1063C54.885 46.4027 55.7857 47.8848 55.6603 49.2644C55.6147 49.7774 55.5007 51.1 55.2613 51.6472C54.7482 52.833 53.6423 53.9161 52.582 53.9959C52.1716 54.8624 51.1113 56.5839 50.1308 57.496C50.108 57.5074 50.0966 57.5302 50.0738 57.5416C50.222 58.0547 50.3702 58.6133 50.5184 59.2518C50.6894 59.9473 51.1569 60.7226 51.8409 60.7796C52.8898 60.8708 54.429 59.4798 54.429 59.4798C54.429 59.4798 52.0006 59.5596 52.0006 58.3853C52.0006 57.2224 52.525 54.5317 53.6309 54.1669C54.4632 53.8933 56.4242 54.0871 57.2451 53.4258C57.8265 52.9584 57.9748 51.6586 58.0774 51.1912C57.7011 50.6667 57.3135 50.0967 56.9145 49.481C56.105 48.2497 55.2043 46.8245 54.1782 45.3424V45.3538ZM55.8313 42.5719C53.4485 39.3112 50.8832 36.1645 48.1698 33.4054C48.2154 34.2263 48.2496 35.0015 48.2724 35.7312C51.5103 38.6043 53.8703 41.6598 55.2043 43.5068C55.4437 43.199 55.6489 42.8797 55.8199 42.5605L55.8313 42.5719Z" fill="#8D7F59"/>
</svg>
