<svg width="22" height="22" viewBox="0 0 22 22" fill="none" xmlns="http://www.w3.org/2000/svg">
<path d="M6.8 1H15.2C18.4 1 21 3.6 21 6.8V15.2C21 16.7383 20.3889 18.2135 19.3012 19.3012C18.2135 20.3889 16.7383 21 15.2 21H6.8C3.6 21 1 18.4 1 15.2V6.8C1 5.26174 1.61107 3.78649 2.69878 2.69878C3.78649 1.61107 5.26174 1 6.8 1ZM6.6 3C5.64522 3 4.72955 3.37928 4.05442 4.05442C3.37928 4.72955 3 5.64522 3 6.6V15.4C3 17.39 4.61 19 6.6 19H15.4C16.3548 19 17.2705 18.6207 17.9456 17.9456C18.6207 17.2705 19 16.3548 19 15.4V6.6C19 4.61 17.39 3 15.4 3H6.6ZM16.25 4.5C16.5815 4.5 16.8995 4.6317 17.1339 4.86612C17.3683 5.10054 17.5 5.41848 17.5 5.75C17.5 6.08152 17.3683 6.39946 17.1339 6.63388C16.8995 6.8683 16.5815 7 16.25 7C15.9185 7 15.6005 6.8683 15.3661 6.63388C15.1317 6.39946 15 6.08152 15 5.75C15 5.41848 15.1317 5.10054 15.3661 4.86612C15.6005 4.6317 15.9185 4.5 16.25 4.5ZM11 6C12.3261 6 13.5979 6.52678 14.5355 7.46447C15.4732 8.40215 16 9.67392 16 11C16 12.3261 15.4732 13.5979 14.5355 14.5355C13.5979 15.4732 12.3261 16 11 16C9.67392 16 8.40215 15.4732 7.46447 14.5355C6.52678 13.5979 6 12.3261 6 11C6 9.67392 6.52678 8.40215 7.46447 7.46447C8.40215 6.52678 9.67392 6 11 6ZM11 8C10.2044 8 9.44129 8.31607 8.87868 8.87868C8.31607 9.44129 8 10.2044 8 11C8 11.7956 8.31607 12.5587 8.87868 13.1213C9.44129 13.6839 10.2044 14 11 14C11.7956 14 12.5587 13.6839 13.1213 13.1213C13.6839 12.5587 14 11.7956 14 11C14 10.2044 13.6839 9.44129 13.1213 8.87868C12.5587 8.31607 11.7956 8 11 8Z" fill="#7B694C" stroke="#CDC7BD" stroke-width="0.25"/>
</svg>
