<svg width="17" height="21" viewBox="0 0 17 21" fill="none" xmlns="http://www.w3.org/2000/svg">
<path d="M8.5 1C10.4891 1 12.3968 1.82385 13.8033 3.2903C15.2098 4.75676 16 6.74569 16 8.81957C16 12.1238 13.7731 15.7249 9.37692 19.6611C9.13248 19.88 8.82082 20.0003 8.49856 20C8.17631 19.9997 7.86485 19.8789 7.62077 19.6595L7.33 19.3965C3.12846 15.5629 1 12.0501 1 8.81957C1 6.74569 1.79018 4.75676 3.1967 3.2903C4.60322 1.82385 6.51088 1 8.5 1ZM8.5 2.20301C6.8169 2.20301 5.20273 2.90011 4.01259 4.14096C2.82246 5.3818 2.15385 7.06475 2.15385 8.81957C2.15385 11.6282 4.11385 14.8643 8.08769 18.4894L8.37462 18.7484C8.4095 18.7797 8.45399 18.7969 8.5 18.7969C8.54601 18.7969 8.5905 18.7797 8.62538 18.7484C12.7915 15.0175 14.8462 11.6948 14.8462 8.81957C14.8462 7.95068 14.682 7.09028 14.3631 6.28753C14.0442 5.48477 13.5767 4.75536 12.9874 4.14096C12.3981 3.52655 11.6985 3.03918 10.9286 2.70667C10.1586 2.37415 9.33339 2.20301 8.5 2.20301Z" fill="#545454" stroke="#545454" stroke-width="0.5"/>
</svg>
