<svg width="21" height="15" viewBox="0 0 21 15" fill="none" xmlns="http://www.w3.org/2000/svg">
<path fill-rule="evenodd" clip-rule="evenodd" d="M2.31 1.125L10.248 6.44062C10.3207 6.48931 10.4091 6.51562 10.5 6.51562C10.5909 6.51562 10.6793 6.48931 10.752 6.44062L18.69 1.125H2.31ZM19.74 1.82812L11.508 7.34062C11.2172 7.53536 10.8635 7.64062 10.5 7.64062C10.1365 7.64062 9.7828 7.53536 9.492 7.34062L1.26 1.82812V13.875H19.74V1.82812ZM1.05 0H19.95C20.2285 0 20.4955 0.0987722 20.6925 0.274588C20.8894 0.450403 21 0.68886 21 0.9375V14.0625C21 14.3111 20.8894 14.5496 20.6925 14.7254C20.4955 14.9012 20.2285 15 19.95 15H1.05C0.771523 15 0.504451 14.9012 0.307538 14.7254C0.110625 14.5496 0 14.3111 0 14.0625V0.9375C0 0.68886 0.110625 0.450403 0.307538 0.274588C0.504451 0.0987722 0.771523 0 1.05 0Z" fill="white"/>
</svg>
