<svg width="23" height="17" viewBox="0 0 23 17" fill="none" xmlns="http://www.w3.org/2000/svg">
<path fill-rule="evenodd" clip-rule="evenodd" d="M3.31 2.125L11.248 7.44062C11.3207 7.48931 11.4091 7.51562 11.5 7.51562C11.5909 7.51562 11.6793 7.48931 11.752 7.44062L19.69 2.125H3.31ZM20.74 2.82812L12.508 8.34062C12.2172 8.53536 11.8635 8.64062 11.5 8.64062C11.1365 8.64062 10.7828 8.53536 10.492 8.34062L2.26 2.82812V14.875H20.74V2.82812ZM2.05 1H20.95C21.2285 1 21.4955 1.09877 21.6925 1.27459C21.8894 1.4504 22 1.68886 22 1.9375V15.0625C22 15.3111 21.8894 15.5496 21.6925 15.7254C21.4955 15.9012 21.2285 16 20.95 16H2.05C1.77152 16 1.50445 15.9012 1.30754 15.7254C1.11062 15.5496 1 15.3111 1 15.0625V1.9375C1 1.68886 1.11062 1.4504 1.30754 1.27459C1.50445 1.09877 1.77152 1 2.05 1Z" fill="#545454" stroke="#545454" stroke-width="0.3"/>
</svg>
