<svg width="15" height="19" viewBox="0 0 15 19" fill="none" xmlns="http://www.w3.org/2000/svg">
<path d="M7.5 0C9.48912 0 11.3968 0.823846 12.8033 2.2903C14.2098 3.75676 15 5.74569 15 7.81957C15 11.1238 12.7731 14.7249 8.37692 18.6611C8.13248 18.88 7.82082 19.0003 7.49856 19C7.17631 18.9997 6.86485 18.8789 6.62077 18.6595L6.33 18.3965C2.12846 14.5629 0 11.0501 0 7.81957C0 5.74569 0.790177 3.75676 2.1967 2.2903C3.60322 0.823846 5.51088 0 7.5 0ZM7.5 1.20301C5.8169 1.20301 4.20273 1.90011 3.01259 3.14096C1.82246 4.3818 1.15385 6.06475 1.15385 7.81957C1.15385 10.6282 3.11385 13.8643 7.08769 17.4894L7.37462 17.7484C7.4095 17.7797 7.45399 17.7969 7.5 17.7969C7.54601 17.7969 7.5905 17.7797 7.62538 17.7484C11.7915 14.0175 13.8462 10.6948 13.8462 7.81957C13.8462 6.95068 13.682 6.09028 13.3631 5.28753C13.0442 4.48477 12.5767 3.75536 11.9874 3.14096C11.3981 2.52655 10.6985 2.03918 9.92857 1.70667C9.15862 1.37415 8.33339 1.20301 7.5 1.20301Z" fill="white"/>
</svg>
