<svg width="18" height="18" viewBox="0 0 18 18" fill="none" xmlns="http://www.w3.org/2000/svg">
<path d="M7.63321 15.2664C6.1235 15.2664 4.6477 14.8187 3.39243 13.98C2.13715 13.1412 1.15879 11.9491 0.581046 10.5543C0.0033073 9.15952 -0.147856 7.62474 0.146673 6.14404C0.441202 4.66335 1.16819 3.30324 2.23572 2.23572C3.30324 1.16819 4.66335 0.441202 6.14404 0.146673C7.62474 -0.147856 9.15952 0.0033073 10.5543 0.581046C11.9491 1.15879 13.1412 2.13715 13.98 3.39243C14.8187 4.6477 15.2664 6.1235 15.2664 7.63321C15.2664 8.63561 15.069 9.62821 14.6854 10.5543C14.3018 11.4804 13.7395 12.3219 13.0307 13.0307C12.3219 13.7395 11.4804 14.3018 10.5543 14.6854C9.62821 15.069 8.63561 15.2664 7.63321 15.2664ZM7.63321 1.5307C6.43026 1.5307 5.25432 1.88742 4.2541 2.55574C3.25388 3.22406 2.47431 4.17398 2.01396 5.28536C1.55361 6.39675 1.43316 7.61968 1.66784 8.79952C1.90253 9.97936 2.4818 11.0631 3.33242 11.9137C4.18303 12.7643 5.26678 13.3436 6.44662 13.5783C7.62646 13.813 8.84939 13.6925 9.96078 13.2322C11.0722 12.7718 12.0221 11.9923 12.6904 10.992C13.3587 9.99182 13.7154 8.81589 13.7154 7.61293C13.7154 5.99982 13.0746 4.45278 11.934 3.31214C10.7934 2.1715 9.24632 1.5307 7.63321 1.5307Z" fill="white"/>
<path d="M16.9897 17.75C16.8898 17.7505 16.7908 17.731 16.6986 17.6927C16.6063 17.6544 16.5226 17.598 16.4524 17.527L12.2658 13.3404C12.1315 13.1962 12.0584 13.0056 12.0619 12.8087C12.0654 12.6117 12.1452 12.4238 12.2845 12.2845C12.4238 12.1452 12.6117 12.0654 12.8087 12.0619C13.0056 12.0584 13.1962 12.1315 13.3404 12.2658L17.527 16.4524C17.6693 16.595 17.7493 16.7882 17.7493 16.9897C17.7493 17.1912 17.6693 17.3844 17.527 17.527C17.4568 17.598 17.3731 17.6544 17.2808 17.6927C17.1886 17.731 17.0896 17.7505 16.9897 17.75Z" fill="white"/>
</svg>
