<svg width="19" height="19" viewBox="0 0 19 19" fill="none" xmlns="http://www.w3.org/2000/svg">
<path d="M8.63321 16.2664C7.1235 16.2664 5.6477 15.8187 4.39243 14.98C3.13715 14.1412 2.15879 12.9491 1.58105 11.5543C1.00331 10.1595 0.852144 8.62474 1.14667 7.14404C1.4412 5.66335 2.16819 4.30324 3.23572 3.23572C4.30324 2.16819 5.66335 1.4412 7.14404 1.14667C8.62474 0.852144 10.1595 1.00331 11.5543 1.58105C12.9491 2.15879 14.1412 3.13715 14.98 4.39243C15.8187 5.6477 16.2664 7.1235 16.2664 8.63321C16.2664 9.63561 16.069 10.6282 15.6854 11.5543C15.3018 12.4804 14.7395 13.3219 14.0307 14.0307C13.3219 14.7395 12.4804 15.3018 11.5543 15.6854C10.6282 16.069 9.63561 16.2664 8.63321 16.2664ZM8.63321 2.5307C7.43026 2.5307 6.25432 2.88742 5.2541 3.55574C4.25388 4.22406 3.47431 5.17398 3.01396 6.28536C2.55361 7.39675 2.43316 8.61968 2.66784 9.79952C2.90253 10.9794 3.4818 12.0631 4.33242 12.9137C5.18303 13.7643 6.26678 14.3436 7.44662 14.5783C8.62646 14.813 9.84939 14.6925 10.9608 14.2322C12.0722 13.7718 13.0221 12.9923 13.6904 11.992C14.3587 10.9918 14.7154 9.81589 14.7154 8.61293C14.7154 6.99982 14.0746 5.45278 12.934 4.31214C11.7934 3.1715 10.2463 2.5307 8.63321 2.5307Z" fill="#545454"/>
<path d="M17.9897 18.75C17.8898 18.7505 17.7908 18.731 17.6986 18.6927C17.6063 18.6544 17.5226 18.598 17.4524 18.527L13.2658 14.3404C13.1315 14.1962 13.0584 14.0056 13.0619 13.8087C13.0654 13.6117 13.1452 13.4238 13.2845 13.2845C13.4238 13.1452 13.6117 13.0654 13.8087 13.0619C14.0056 13.0584 14.1962 13.1315 14.3404 13.2658L18.527 17.4524C18.6693 17.595 18.7493 17.7882 18.7493 17.9897C18.7493 18.1912 18.6693 18.3844 18.527 18.527C18.4568 18.598 18.3731 18.6544 18.2808 18.6927C18.1886 18.731 18.0896 18.7505 17.9897 18.75Z" fill="#545454"/>
<path d="M8.63321 16.2664C7.1235 16.2664 5.6477 15.8187 4.39243 14.98C3.13715 14.1412 2.15879 12.9491 1.58105 11.5543C1.00331 10.1595 0.852144 8.62474 1.14667 7.14404C1.4412 5.66335 2.16819 4.30324 3.23572 3.23572C4.30324 2.16819 5.66335 1.4412 7.14404 1.14667C8.62474 0.852144 10.1595 1.00331 11.5543 1.58105C12.9491 2.15879 14.1412 3.13715 14.98 4.39243C15.8187 5.6477 16.2664 7.1235 16.2664 8.63321C16.2664 9.63561 16.069 10.6282 15.6854 11.5543C15.3018 12.4804 14.7395 13.3219 14.0307 14.0307C13.3219 14.7395 12.4804 15.3018 11.5543 15.6854C10.6282 16.069 9.63561 16.2664 8.63321 16.2664ZM8.63321 2.5307C7.43026 2.5307 6.25432 2.88742 5.2541 3.55574C4.25388 4.22406 3.47431 5.17398 3.01396 6.28536C2.55361 7.39675 2.43316 8.61968 2.66784 9.79952C2.90253 10.9794 3.4818 12.0631 4.33242 12.9137C5.18303 13.7643 6.26678 14.3436 7.44662 14.5783C8.62646 14.813 9.84939 14.6925 10.9608 14.2322C12.0722 13.7718 13.0221 12.9923 13.6904 11.992C14.3587 10.9918 14.7154 9.81589 14.7154 8.61293C14.7154 6.99982 14.0746 5.45278 12.934 4.31214C11.7934 3.1715 10.2463 2.5307 8.63321 2.5307Z" stroke="#545454" stroke-width="0.2"/>
<path d="M17.9897 18.75C17.8898 18.7505 17.7908 18.731 17.6986 18.6927C17.6063 18.6544 17.5226 18.598 17.4524 18.527L13.2658 14.3404C13.1315 14.1962 13.0584 14.0056 13.0619 13.8087C13.0654 13.6117 13.1452 13.4238 13.2845 13.2845C13.4238 13.1452 13.6117 13.0654 13.8087 13.0619C14.0056 13.0584 14.1962 13.1315 14.3404 13.2658L18.527 17.4524C18.6693 17.595 18.7493 17.7882 18.7493 17.9897C18.7493 18.1912 18.6693 18.3844 18.527 18.527C18.4568 18.598 18.3731 18.6544 18.2808 18.6927C18.1886 18.731 18.0896 18.7505 17.9897 18.75Z" stroke="#545454" stroke-width="0.2"/>
</svg>
