<svg width="615" height="52" viewBox="0 0 615 52" fill="none" xmlns="http://www.w3.org/2000/svg">
<path d="M571.927 51.0557H583.12V30.8746H603.802V51.0557H614.995V0.775945H603.802V20.6529H583.12V0.775945H571.927V51.0505V51.0557ZM543.51 51.9158C553.348 51.9158 559.161 48.4649 564.408 42.9476L557.282 35.8307C553.258 39.4075 549.715 41.7361 543.902 41.7361C535.155 41.7361 529.124 34.5353 529.124 25.9552V25.8241C529.124 17.202 535.335 10.169 543.902 10.169C549.016 10.169 552.998 12.3245 556.932 15.8594L564.059 7.75123C559.336 3.136 553.565 -0.0107422 543.944 -0.0107422C528.293 -0.0107422 517.359 11.6742 517.359 25.9919V26.123C517.359 40.5666 528.51 51.9945 543.51 51.9945V51.9106V51.9158ZM482.207 30.0092L488.984 13.7091L495.761 30.0092H482.207ZM462.092 51.0557H473.502L478.177 39.8009H499.733L504.408 51.0557H516.125L494.274 0.429802H483.906L462.044 51.0505H462.087L462.092 51.0557ZM448.272 35.7468V35.8727C448.272 39.6225 445.297 41.348 440.314 41.348H426.977V30.3082H439.917C445.689 30.3082 448.225 32.3798 448.225 35.7835L448.267 35.7416L448.272 35.7468ZM445.434 15.7807C445.434 19.5306 442.284 21.083 437.344 21.083H426.982V10.4312H438.043C442.766 10.4312 445.387 12.2878 445.387 15.6076V15.7387L445.434 15.7807ZM416.091 51.0557H440.357C451.857 51.0557 459.423 46.4405 459.423 37.2572V37.1261C459.423 30.3554 455.791 26.9936 449.893 24.7961C453.525 22.7717 456.58 19.6197 456.58 13.9713V13.8402C456.58 10.3893 455.399 7.58865 453.08 5.30202C450.152 2.41225 445.556 0.859858 439.743 0.859858H416.085V51.1344V51.0505L416.091 51.0557ZM360.04 51.0557H371.101V19.1057L395.806 51.0557H405.337V0.775945H394.276V31.7347L370.312 0.775945H359.95V51.0505H360.04V51.0557ZM311.985 51.0557H350.811V41.2221H323.135V30.6596H347.184V20.826H323.135V10.6095H350.462V0.775945H312.027V51.0505H311.985V51.0557ZM268.345 51.0557H304.985V41.0071H279.581V0.775945H268.387V51.0505H268.345V51.0557ZM229.079 30.0092L235.856 13.7091L242.634 30.0092H229.079ZM208.964 51.0557H220.374L225.055 39.8009H246.61L251.285 51.0557H263.003L241.146 0.429802H230.784L208.922 51.0505H208.964V51.0557ZM153.04 51.0557H164.017V18.4554L178.228 39.7117H178.535L192.878 18.2351V51.0505H204.029V0.775945H191.962L178.583 22.0322L165.107 0.775945H153.04V51.0505V51.0557ZM99.5208 51.0557H110.714V30.8746H131.395V51.0557H142.589V0.775945H131.395V20.6529H110.714V0.775945H99.5208V51.0505V51.0557ZM71.8397 51.9158C81.6774 51.9158 87.491 48.4649 92.7382 42.9476L85.6114 35.8307C81.5874 39.4075 78.0451 41.7361 72.2315 41.7361C63.4845 41.7361 57.4537 34.5353 57.4537 25.9552V25.8241C57.4537 17.202 63.6645 10.169 72.2315 10.169C77.3462 10.169 81.3279 12.3245 85.2619 15.8594L92.3887 7.75123C87.6658 3.136 81.8945 -0.0107422 72.2738 -0.0107422C56.6224 -0.0107422 45.6887 11.6742 45.6887 25.9919V26.123C45.6887 40.5666 56.8395 51.9945 71.8344 51.9945V51.9106L71.8397 51.9158ZM21.6451 51.7847C32.6212 51.7847 40.3622 46.1783 40.3622 36.2188V36.0877C40.3622 27.3345 34.5485 23.6685 24.1813 20.9938C15.3496 18.7491 13.2052 17.674 13.2052 14.3961V14.265C13.2052 11.8053 15.4767 9.87004 19.7654 9.87004C24.0542 9.87004 28.5071 11.7214 33.013 14.8314L38.8267 6.50827C33.6272 2.3703 27.3264 0.0417036 19.8978 0.0417036C9.48826 0.0417036 2.05438 6.07821 2.05438 15.2195V15.3506C2.05438 25.3573 8.69933 28.1159 18.9342 30.7015C27.4588 32.857 29.2113 34.2836 29.2113 37.0842V37.2153C29.2113 40.147 26.458 41.9564 21.8622 41.9564C16.0485 41.9564 11.2355 39.5858 6.64496 35.836L0 43.6818C6.12077 49.0733 13.9041 51.7428 21.6451 51.7428V51.7847Z" fill="black"/>
</svg>
