<svg width="465" height="125" viewBox="0 0 465 125" fill="none" xmlns="http://www.w3.org/2000/svg">
<g clip-path="url(#clip0_3141_1811)">
<path d="M74.8708 121.32C73.3408 120.77 72.5608 120.21 72.3308 118.83C71.9308 116.43 76.9108 114.47 76.9108 110.53V45.4898C76.8808 43.9898 76.6708 42.3998 75.6608 41.8898C73.9608 41.0398 70.6508 42.0798 70.5808 37.6798C70.5008 32.5998 76.9108 32.8898 76.9108 32.8898C76.9108 32.8898 89.7608 32.8898 95.6408 32.8898C97.2508 32.8898 99.3808 35.1298 99.3808 37.0998C99.4608 65.9198 99.3808 111.01 99.3808 111.01C99.8508 114.4 103.921 116.45 104.001 118.93C104.041 120.03 102.491 121.15 101.991 121.33H74.8608L74.8708 121.32Z" fill="#231F20" stroke="#231F20" stroke-width="0.21" stroke-miterlimit="3.86"/>
<path d="M74.4609 14.6097C74.4609 7.90973 79.9009 2.46973 86.6009 2.46973C93.3009 2.46973 98.7409 7.90973 98.7409 14.6097C98.7409 21.3097 93.3009 26.7497 86.6009 26.7497C79.9009 26.7497 74.4609 21.3097 74.4609 14.6097Z" fill="#231F20" stroke="#231F20" stroke-width="0.21" stroke-miterlimit="3.86"/>
<path d="M376.551 14.6097C376.551 7.90973 381.991 2.46973 388.691 2.46973C395.391 2.46973 400.831 7.90973 400.831 14.6097C400.831 21.3097 395.391 26.7497 388.691 26.7497C381.991 26.7497 376.551 21.3097 376.551 14.6097Z" fill="#231F20" stroke="#231F20" stroke-width="0.21" stroke-miterlimit="3.86"/>
<path d="M4.00079 83.4098C9.4208 82.9498 13.0208 91.3898 19.8608 100.31C27.1708 108.63 36.8108 113.66 43.2508 103.88C50.0308 93.5698 45.3908 80.6498 35.3908 72.3698C19.8808 60.1798 1.8708 60.7098 0.980795 32.8898C0.490795 17.9298 11.2208 0.439806 32.4608 0.109806C42.8608 -0.0501937 45.8208 4.26981 47.5508 4.20981C49.5408 4.13981 48.8708 0.709806 53.0508 0.769806C56.6108 0.819806 57.7108 3.17981 58.2108 4.86981C60.8608 13.7298 62.2408 18.9398 64.8008 27.6398C65.4908 29.9798 63.8008 35.0398 59.8408 35.1998C57.8708 35.2798 55.8408 35.0598 54.2508 32.8798C46.5508 22.3098 42.4108 9.97981 31.3808 14.0098C22.0608 17.4198 18.1608 35.2298 44.6008 45.7998C58.3408 51.0198 70.9208 57.4198 72.5608 82.1098C74.0608 104.7 61.0708 123.62 40.0308 124.04C26.3408 124.31 23.3208 118.44 19.1508 120.41C17.6108 121.14 15.5908 123.24 13.0208 122.96C10.9808 122.74 9.6208 122.03 8.40079 120.47L0.170795 90.3398C-0.259205 88.9298 1.48079 83.6298 4.00079 83.4098Z" fill="#231F20" stroke="#231F20" stroke-width="0.21" stroke-miterlimit="3.86"/>
<path d="M216.06 50.1399C217.46 50.1899 218.82 47.4199 219.38 45.1899C221.66 35.9899 223.29 28.1599 225.65 16.8799C226.08 14.8199 225.48 13.0299 223.85 11.5599C222.19 10.0599 220.41 10.7299 220.49 6.76988C220.54 3.94988 222.35 1.91988 224.7 1.88988H258.86C260.99 1.92988 262.29 3.88988 262.4 6.36988C262.54 9.56988 259.45 10.4899 256.99 12.5399C255.5 13.7799 254.65 15.2299 254.9 17.2999C259.15 52.3799 262.02 75.8599 265.52 106.55C265.74 108.46 266.42 109.51 267.6 111.03C268.63 112.35 271.61 113.66 271.57 117.05C271.55 119.28 270.05 121.25 266.56 121.32H236.88C234.67 120.96 232.54 119.78 232.56 117.55C232.58 114.13 234.65 113.48 236.79 112.47C238.42 111.7 239.1 106.37 238.92 104.03C237.94 91.1699 236.96 84.3099 235.64 72.1899C235.41 70.0599 233.76 68.3999 232.37 68.4399C230.94 68.4799 229.94 69.5999 229.53 71.0999C224.47 89.4299 222.31 96.7699 218.32 111.2C217.88 112.79 216.93 114.45 215.16 114.47C213.37 114.5 212.58 113.01 211.9 111.24C206.53 97.2999 201.32 83.9599 196.59 71.3999C195.96 69.7199 194.77 68.2999 192.94 68.4399C191.19 68.5699 190.22 70.2099 190.14 71.9599C189.47 87.8499 189.16 92.9099 188.68 106.67C188.63 108.22 188.49 109.18 188.84 110.46C189.51 112.91 195.82 113.77 195.78 117.7C195.76 119.53 193.16 121.3 191.17 121.31H167.32C164.52 120.87 163.59 119.84 163.59 117.86C163.59 114.02 165.57 113.84 167.22 112.58C168.91 111.28 169.8 105.81 169.91 104.27C172.2 71.9699 175.62 20.7599 175.61 16.1899C175.61 14.2199 174.18 12.7899 172.33 11.5899C170.65 10.4999 168.21 9.36988 168.18 6.41988C168.15 4.16988 169.67 2.34988 172.27 1.87988H203.56C205.73 1.87988 207.93 3.86988 207.89 6.60988C207.83 10.2199 205.23 10.9199 204.06 12.0599C202.27 13.7899 202.37 16.8699 202.91 18.5299C203.79 21.2199 209.88 37.6799 212.74 45.1599C213.71 47.9999 214.72 50.0899 216.08 50.1399H216.06Z" fill="#231F20" stroke="#231F20" stroke-width="0.21" stroke-miterlimit="3.86"/>
<path d="M406.7 78.28C405.91 105.41 419.79 122.93 438.18 122.93C454.77 122.93 461.96 111.9 464.1 95.9901C464.23 95.0101 464.28 93.5201 463.03 93.39L458.77 92.64C456.02 92.2001 456.09 94.2901 455.71 95.8101C453.72 103.76 452.51 112.16 443.13 112.66C431.95 113.26 430.25 92.59 430.25 78.3301C430.25 64.0701 431.69 43.9401 442.68 43.1501C448.97 42.7001 453.25 50.32 455.4 57.32C455.86 58.82 457.11 60.6901 458.9 60.4701C461.3 60.1701 461.4 57.5201 461.5 54.6301L459.47 34.9001C458.95 33.3201 458.5 31.89 456.23 31.81C453.61 31.72 451.66 33.97 448.87 34.05C444.43 34.18 444.17 31.02 437.84 31.22C417.41 31.86 407.39 54.83 406.7 78.27V78.28Z" fill="#231F20" stroke="#231F20" stroke-width="0.21" stroke-miterlimit="3.86"/>
<path fill-rule="evenodd" clip-rule="evenodd" d="M136.95 42.1295C143.39 42.1995 145.31 53.9295 144.49 62.9595C144.36 64.4095 142.38 67.2395 140.36 67.3295C137.59 67.4495 135.75 67.4295 132.9 67.3295C130.12 67.2295 127.72 65.6495 127.5 62.5395C126.8 52.8395 129.06 42.0495 136.95 42.1295ZM104.47 81.7495C104.74 63.6195 111.1 31.6895 137.23 31.7295C155.22 31.7595 166.41 54.7195 165.09 72.7695C164.92 75.0695 164.74 76.6995 161.65 77.0395C161.65 77.0395 142.19 77.0295 131.1 77.0795C129.31 77.0795 127.43 78.6895 127.42 80.4595C127.38 86.0995 127.06 87.3795 127.42 94.3995C128.31 103.78 131.17 110.99 139.31 110.45C154.34 109.46 155.22 99.8395 156.15 97.4195C156.71 95.9895 157.12 93.8995 158.81 94.2795C161.13 94.7995 161.96 95.0895 165.3 96.1095C166.24 96.3995 166.16 98.1195 165.86 99.1695C160.49 118.15 145.24 123.27 135.16 123.06C118.25 122.7 104.09 106.4 104.45 81.7495H104.47Z" fill="#231F20"/>
<path d="M136.95 42.1295C143.39 42.1995 145.31 53.9295 144.49 62.9595C144.36 64.4095 142.38 67.2395 140.36 67.3295C137.59 67.4495 135.75 67.4295 132.9 67.3295C130.12 67.2295 127.72 65.6495 127.5 62.5395C126.8 52.8395 129.06 42.0495 136.95 42.1295ZM104.47 81.7495C104.74 63.6195 111.1 31.6895 137.23 31.7295C155.22 31.7595 166.41 54.7195 165.09 72.7695C164.92 75.0695 164.74 76.6995 161.65 77.0395C161.65 77.0395 142.19 77.0295 131.1 77.0795C129.31 77.0795 127.43 78.6895 127.42 80.4595C127.38 86.0995 127.06 87.3795 127.42 94.3995C128.31 103.78 131.17 110.99 139.31 110.45C154.34 109.46 155.22 99.8395 156.15 97.4195C156.71 95.9895 157.12 93.8995 158.81 94.2795C161.13 94.7995 161.96 95.0895 165.3 96.1095C166.24 96.3995 166.16 98.1195 165.86 99.1695C160.49 118.15 145.24 123.27 135.16 123.06C118.25 122.7 104.09 106.4 104.45 81.7495H104.47Z" stroke="#231F20" stroke-width="0.21" stroke-miterlimit="3.86"/>
<path fill-rule="evenodd" clip-rule="evenodd" d="M291.61 96.8401C291.83 104.71 294.63 108.21 299.46 108.14C303.77 108.08 307 103.85 307.09 99.1701C307.09 99.1701 307.09 86.0801 307.11 78.9601C307.11 77.3001 306.22 75.2701 304.51 75.2701C298.31 75.2801 291.38 88.9901 291.6 96.8401H291.61ZM282.96 61.5901C288.43 61.9501 292.36 56.7101 293.31 51.4201C293.73 49.0701 293.33 47.4301 294.3 45.1601C295.52 42.2901 297.56 40.9901 300.38 40.9001C307.21 40.6701 307.09 49.3801 307.14 52.4001C307.27 59.8301 299.23 63.7101 296.47 65.5601C285.34 72.0801 266.36 79.5401 268 99.8001C269.05 112.75 279.44 123.48 289.62 123.06C299.24 122.66 304.83 115.57 306.53 115.48C307.76 115.42 315.03 123.55 323.81 123.01C330.42 122.61 336.99 118.86 336.98 114.28C336.98 111.52 329.66 110.9 329.62 106.07C329.45 85.6501 329.62 75.1001 329.74 55.7201C329.84 40.7801 318.05 31.5801 299.85 31.2001C286.53 30.9201 273.69 38.3101 273.78 49.9701C273.83 56.7101 277.48 61.2201 282.96 61.5901Z" fill="#231F20"/>
<path d="M291.61 96.8401C291.83 104.71 294.63 108.21 299.46 108.14C303.77 108.08 307 103.85 307.09 99.1701C307.09 99.1701 307.09 86.0801 307.11 78.9601C307.11 77.3001 306.22 75.2701 304.51 75.2701C298.31 75.2801 291.38 88.9901 291.6 96.8401H291.61ZM282.96 61.5901C288.43 61.9501 292.36 56.7101 293.31 51.4201C293.73 49.0701 293.33 47.4301 294.3 45.1601C295.52 42.2901 297.56 40.9901 300.38 40.9001C307.21 40.6701 307.09 49.3801 307.14 52.4001C307.27 59.8301 299.23 63.7101 296.47 65.5601C285.34 72.0801 266.36 79.5401 268 99.8001C269.05 112.75 279.44 123.48 289.62 123.06C299.24 122.66 304.83 115.57 306.53 115.48C307.76 115.42 315.03 123.55 323.81 123.01C330.42 122.61 336.99 118.86 336.98 114.28C336.98 111.52 329.66 110.9 329.62 106.07C329.45 85.6501 329.62 75.1001 329.74 55.7201C329.84 40.7801 318.05 31.5801 299.85 31.2001C286.53 30.9201 273.69 38.3101 273.78 49.9701C273.83 56.7101 277.48 61.2201 282.96 61.5901Z" stroke="#231F20" stroke-width="0.21" stroke-miterlimit="3.86"/>
<path d="M378.601 32.8903H378.991C378.991 32.8903 378.841 32.8903 378.601 32.8903ZM376.951 121.32C375.421 120.77 374.641 120.21 374.411 118.83C374.011 116.43 378.991 114.47 378.991 110.53V45.2703C379.041 44.0303 378.751 42.4003 377.741 41.8903C377.391 41.7203 376.981 41.6203 376.541 41.5403H366.051C363.891 41.8303 362.701 42.7503 362.761 45.1603C363.231 64.9403 362.871 80.8603 362.731 103.58C362.701 108.31 365.011 109.81 366.941 109.53C367.781 109.41 372.081 109.82 372.381 113C372.831 117.75 362.641 122.37 356.291 122.45C344.661 122.61 340.621 114.75 340.511 106V46.7003C340.581 44.2403 338.001 41.5703 335.831 41.6003H331.301V32.8803H341.211C344.661 32.8803 346.321 31.0803 346.841 29.2303C348.881 21.9403 350.031 17.7703 352.311 10.5903C352.801 9.03027 353.181 8.79027 354.271 8.78027H360.771C361.621 8.78027 362.671 9.63027 362.761 10.6003C362.761 10.6003 362.581 22.3403 362.861 30.0203C362.941 32.2403 363.721 32.7003 364.771 32.8803H378.621C378.871 32.8803 379.011 32.8803 379.011 32.8803H397.571C399.641 32.8803 401.501 34.6403 401.491 36.6503C401.391 65.6503 401.491 111 401.491 111C401.961 114.39 406.031 116.44 406.111 118.92C406.151 120.02 404.601 121.14 404.101 121.32H376.971H376.951Z" fill="#231F20"/>
<path d="M378.601 32.8903H378.991C378.991 32.8903 378.841 32.8903 378.601 32.8903ZM376.951 121.32C375.421 120.77 374.641 120.21 374.411 118.83C374.011 116.43 378.991 114.47 378.991 110.53V45.2703C379.041 44.0303 378.751 42.4003 377.741 41.8903C377.391 41.7203 376.981 41.6203 376.541 41.5403H366.051C363.891 41.8303 362.701 42.7503 362.761 45.1603C363.231 64.9403 362.871 80.8603 362.731 103.58C362.701 108.31 365.011 109.81 366.941 109.53C367.781 109.41 372.081 109.82 372.381 113C372.831 117.75 362.641 122.37 356.291 122.45C344.661 122.61 340.621 114.75 340.511 106V46.7003C340.581 44.2403 338.001 41.5703 335.831 41.6003H331.301V32.8803H341.211C344.661 32.8803 346.321 31.0803 346.841 29.2303C348.881 21.9403 350.031 17.7703 352.311 10.5903C352.801 9.03027 353.181 8.79027 354.271 8.78027H360.771C361.621 8.78027 362.671 9.63027 362.761 10.6003C362.761 10.6003 362.581 22.3403 362.861 30.0203C362.941 32.2403 363.721 32.7003 364.771 32.8803H378.621C378.871 32.8803 379.011 32.8803 379.011 32.8803H397.571C399.641 32.8803 401.501 34.6403 401.491 36.6503C401.391 65.6503 401.491 111 401.491 111C401.961 114.39 406.031 116.44 406.111 118.92C406.151 120.02 404.601 121.14 404.101 121.32H376.971H376.951Z" stroke="#231F20" stroke-width="0.21" stroke-miterlimit="3.86"/>
</g>
<defs>
<clipPath id="clip0_3141_1811">
<rect width="464.27" height="124.16" fill="white"/>
</clipPath>
</defs>
</svg>
