<svg width="836" height="1197" viewBox="0 0 836 1197" fill="none" xmlns="http://www.w3.org/2000/svg">
<g opacity="0.2" clip-path="url(#clip0_2725_588)">
<path d="M119.291 1196.78L-2 1077.77V1197L119.291 1196.78Z" fill="#8D7F59"/>
<path d="M119.737 480.263L-1.55371 361.25V480.482L119.737 480.263Z" fill="#8D7F59"/>
<path d="M119.737 122.052L-1.55371 3.03906V122.271L119.737 122.052Z" fill="#8D7F59"/>
<path d="M120.402 241.94L-0.888672 360.952V241.721L120.402 241.94Z" fill="#8D7F59"/>
<path d="M241.746 120.553L120.455 239.566V120.334L241.746 120.553Z" fill="#8D7F59"/>
<path d="M241.238 1076.99L119.947 957.985V1077.21L241.238 1076.99Z" fill="#8D7F59"/>
<path d="M120.866 956.575L-0.424805 837.562V956.794L120.866 956.575Z" fill="#8D7F59"/>
<path d="M477.852 598.75L356.561 479.737V598.969L477.852 598.75Z" fill="#8D7F59"/>
<path d="M597.155 716.344L475.864 597.331V716.563L597.155 716.344Z" fill="#8D7F59"/>
<path d="M239.97 1074.73L120.998 1196.06H240.188L239.97 1074.73Z" fill="#8D7F59"/>
<path d="M240.731 958.073L359.702 836.74H240.512L240.731 958.073Z" fill="#8D7F59"/>
<path d="M355.475 836.688L476.766 955.691V836.46L355.475 836.688Z" fill="#8D7F59"/>
<path d="M-1.125 597.55L120.166 716.563V597.331L-1.125 597.55Z" fill="#8D7F59"/>
<path d="M117.304 359.297L238.586 478.301V359.069L117.304 359.297Z" fill="#8D7F59"/>
<path d="M239.436 241.282L360.727 360.286V241.055L239.436 241.282Z" fill="#8D7F59"/>
<path d="M476.529 122.392L597.812 241.396V122.164L476.529 122.392Z" fill="#8D7F59"/>
<path d="M356.561 121.938L477.852 240.95V121.719L356.561 121.938Z" fill="#8D7F59"/>
<path d="M357.409 479.352L476.381 358.027H357.19L357.409 479.352Z" fill="#8D7F59"/>
<path d="M476.468 597.611L595.439 476.278H476.249L476.468 597.611Z" fill="#8D7F59"/>
<path d="M237.921 717.981L359.212 836.993V717.762L237.921 717.981Z" fill="#8D7F59"/>
<path d="M476.529 958.204L597.812 1077.21V957.985L476.529 958.204Z" fill="#8D7F59"/>
<path d="M356.561 1077.78L477.852 1196.79V1077.56L356.561 1077.78Z" fill="#8D7F59"/>
<path d="M119.685 837.187L238.647 715.862H119.466L119.685 837.187Z" fill="#8D7F59"/>
<path d="M357.278 956.716L238.315 1078.05H357.506L357.278 956.716Z" fill="#8D7F59"/>
<path d="M595.431 836.714L476.46 958.047H595.65L595.431 836.714Z" fill="#8D7F59"/>
<path d="M240.127 836.714L121.155 958.047H240.346L240.127 836.714Z" fill="#8D7F59"/>
<path d="M359.265 596.709L240.302 718.033H359.492L359.265 596.709Z" fill="#8D7F59"/>
<path d="M240.521 242.001L359.492 120.668H240.302L240.521 242.001Z" fill="#8D7F59"/>
<path d="M358.284 121.78L477.256 0.447266H358.065L358.284 121.78Z" fill="#8D7F59"/>
<path d="M239.305 0L120.342 121.333H239.523L239.305 0Z" fill="#8D7F59"/>
<path d="M239.305 475.376L120.342 596.709H239.523L239.305 475.376Z" fill="#8D7F59"/>
<path d="M357.278 359.35L238.315 480.683H357.506L357.278 359.35Z" fill="#8D7F59"/>
<path d="M596.333 240.643L477.361 361.976H596.552L596.333 240.643Z" fill="#8D7F59"/>
<path d="M597.785 1196.78L476.503 1077.77V1197L597.785 1196.78Z" fill="#8D7F59"/>
<path d="M597.365 476.76L476.074 357.747V476.979L597.365 476.76Z" fill="#8D7F59"/>
<path d="M599.116 122.052L477.825 3.03906V122.271L599.116 122.052Z" fill="#8D7F59"/>
<path d="M598.906 242.815L477.615 361.827V242.596L598.906 242.815Z" fill="#8D7F59"/>
<path d="M718.709 1076.99L597.418 957.985V1077.21L718.709 1076.99Z" fill="#8D7F59"/>
<path d="M718.472 1074.73L599.501 1196.06H718.691L718.472 1074.73Z" fill="#8D7F59"/>
<path d="M716.608 958.073L835.58 836.74H716.39L716.608 958.073Z" fill="#8D7F59"/>
<path d="M476.503 597.55L597.785 716.563V597.331L476.503 597.55Z" fill="#8D7F59"/>
<path d="M596.674 360.173L717.965 479.177V359.945L596.674 360.173Z" fill="#8D7F59"/>
<path d="M714.438 241.282L835.729 360.286V241.055L714.438 241.282Z" fill="#8D7F59"/>
<path d="M713.799 717.981L835.09 836.993V717.762L713.799 717.981Z" fill="#8D7F59"/>
<path d="M596.438 838.062L715.4 716.737H596.21L596.438 838.062Z" fill="#8D7F59"/>
<path d="M835.781 956.716L716.81 1078.05H836L835.781 956.716Z" fill="#8D7F59"/>
<path d="M835.142 596.709L716.18 718.033H835.361L835.142 596.709Z" fill="#8D7F59"/>
<path d="M714.648 242.001L833.61 120.668H714.429L714.648 242.001Z" fill="#8D7F59"/>
<path d="M717.807 0L598.836 121.333H718.026L717.807 0Z" fill="#8D7F59"/>
<path d="M717.807 475.376L598.836 596.709H718.026L717.807 475.376Z" fill="#8D7F59"/>
<path d="M835.781 359.35L716.81 480.683H836L835.781 359.35Z" fill="#8D7F59"/>
</g>
<defs>
<clipPath id="clip0_2725_588">
<rect width="838" height="1197" fill="white" transform="translate(-2)"/>
</clipPath>
</defs>
</svg>
